<svg xmlns="http://www.w3.org/2000/svg" xmlns:xlink="http://www.w3.org/1999/xlink" xmlns:lucid="lucid" width="1285.3" height="664"><g transform="translate(309.3161303185632 72)" lucid:page-tab-id="IjWxHX~VbvXq"><path d="M391.18 83a5 5 0 0 1 5-5h214.3a5 5 0 0 1 5 5v200a5 5 0 0 1-5 5h-214.3a5 5 0 0 1-5-5z" fill="#fff"/><path d="M391.18 118V83a5 5 0 0 1 5-5h214.3a5 5 0 0 1 5 5v35" fill="#dfe3e8"/><path d="M391.18 83a5 5 0 0 1 5-5h214.3a5 5 0 0 1 5 5v200a5 5 0 0 1-5 5h-214.3a5 5 0 0 1-5-5zM391.18 118h224.3" stroke="#282c33" fill="none"/><use xlink:href="#a" transform="matrix(1,0,0,1,401.1838696814368,77.99995000000013) translate(0 24.044444444444444)"/><use xlink:href="#b" transform="matrix(1,0,0,1,396.1838696814368,120.49995000000013) translate(0 18.544444444444444)"/><use xlink:href="#c" transform="matrix(1,0,0,1,396.1838696814368,154.49995000000013) translate(0 18.544444444444444)"/><use xlink:href="#d" transform="matrix(1,0,0,1,396.1838696814368,188.49995000000013) translate(0 18.544444444444444)"/><use xlink:href="#e" transform="matrix(1,0,0,1,396.1838696814368,222.49995000000013) translate(0 18.544444444444444)"/><use xlink:href="#f" transform="matrix(1,0,0,1,396.1838696814368,256.4999500000001) translate(0 18.544444444444444)"/><path d="M-288.82 181a5 5 0 0 1 5-5h214.3a5 5 0 0 1 5 5v166a5 5 0 0 1-5 5h-214.3a5 5 0 0 1-5-5z" fill="#fff"/><path d="M-288.82 216v-35a5 5 0 0 1 5-5h214.3a5 5 0 0 1 5 5v35" fill="#dfe3e8"/><path d="M-288.82 181a5 5 0 0 1 5-5h214.3a5 5 0 0 1 5 5v166a5 5 0 0 1-5 5h-214.3a5 5 0 0 1-5-5zM-288.82 216h224.3" stroke="#282c33" fill="none"/><use xlink:href="#g" transform="matrix(1,0,0,1,-278.8161303185632,175.99995000000013) translate(0 24.044444444444444)"/><use xlink:href="#b" transform="matrix(1,0,0,1,-283.8161303185632,218.49995000000013) translate(0 18.544444444444444)"/><use xlink:href="#h" transform="matrix(1,0,0,1,-283.8161303185632,252.49995000000013) translate(0 18.544444444444444)"/><use xlink:href="#i" transform="matrix(1,0,0,1,-283.8161303185632,286.4999500000001) translate(0 18.544444444444444)"/><use xlink:href="#j" transform="matrix(1,0,0,1,-283.8161303185632,320.4999500000001) translate(0 18.544444444444444)"/><path d="M731.18 345a5 5 0 0 1 5-5h214.3a5 5 0 0 1 5 5v166a5 5 0 0 1-5 5h-214.3a5 5 0 0 1-5-5z" fill="#fff"/><path d="M731.18 380v-35a5 5 0 0 1 5-5h214.3a5 5 0 0 1 5 5v35" fill="#dfe3e8"/><path d="M731.18 345a5 5 0 0 1 5-5h214.3a5 5 0 0 1 5 5v166a5 5 0 0 1-5 5h-214.3a5 5 0 0 1-5-5zM731.18 380h224.3" stroke="#282c33" fill="none"/><use xlink:href="#k" transform="matrix(1,0,0,1,741.1838696814369,340) translate(0 24.044444444444444)"/><use xlink:href="#b" transform="matrix(1,0,0,1,736.1838696814369,382.5) translate(0 18.544444444444444)"/><use xlink:href="#l" transform="matrix(1,0,0,1,736.1838696814369,416.5) translate(0 18.544444444444444)"/><use xlink:href="#m" transform="matrix(1,0,0,1,736.1838696814369,450.5) translate(0 18.544444444444444)"/><use xlink:href="#n" transform="matrix(1,0,0,1,736.1838696814369,484.5) translate(0 18.544444444444444)"/><path d="M391.18 356.33a5 5 0 0 1 5-5h214.3a5 5 0 0 1 5 5v132a5 5 0 0 1-5 5h-214.3a5 5 0 0 1-5-5z" fill="#fff"/><path d="M391.18 391.33v-35a5 5 0 0 1 5-5h214.3a5 5 0 0 1 5 5v35" fill="#dfe3e8"/><path d="M391.18 356.33a5 5 0 0 1 5-5h214.3a5 5 0 0 1 5 5v132a5 5 0 0 1-5 5h-214.3a5 5 0 0 1-5-5zM391.18 391.33h224.3" stroke="#282c33" fill="none"/><use xlink:href="#o" transform="matrix(1,0,0,1,401.1838696814368,351.3350007748088) translate(0 24.044444444444444)"/><use xlink:href="#b" transform="matrix(1,0,0,1,396.1838696814368,393.8350007748088) translate(0 18.544444444444444)"/><use xlink:href="#p" transform="matrix(1,0,0,1,396.1838696814368,427.8350007748088) translate(0 18.544444444444444)"/><use xlink:href="#q" transform="matrix(1,0,0,1,396.1838696814368,461.8350007748088) translate(0 18.544444444444444)"/><path d="M-288.82 5.5a5 5 0 0 1 5-5h214.3a5 5 0 0 1 5 5v132a5 5 0 0 1-5 5h-214.3a5 5 0 0 1-5-5z" fill="#fff"/><path d="M-288.82 40.5v-35a5 5 0 0 1 5-5h214.3a5 5 0 0 1 5 5v35" fill="#dfe3e8"/><path d="M-288.82 5.5a5 5 0 0 1 5-5h214.3a5 5 0 0 1 5 5v132a5 5 0 0 1-5 5h-214.3a5 5 0 0 1-5-5zM-288.82 40.5h224.3" stroke="#282c33" fill="none"/><use xlink:href="#r" transform="matrix(1,0,0,1,-278.8161303185632,0.49995000000012624) translate(0 24.044444444444444)"/><use xlink:href="#b" transform="matrix(1,0,0,1,-283.8161303185632,42.999950000000126) translate(0 18.544444444444444)"/><use xlink:href="#s" transform="matrix(1,0,0,1,-283.8161303185632,76.99995000000013) translate(0 18.544444444444444)"/><use xlink:href="#t" transform="matrix(1,0,0,1,-283.8161303185632,110.99995000000013) translate(0 18.544444444444444)"/><path d="M-288.82 390.5a5 5 0 0 1 5-5h214.3a5 5 0 0 1 5 5v132a5 5 0 0 1-5 5h-214.3a5 5 0 0 1-5-5z" fill="#fff"/><path d="M-288.82 425.5v-35a5 5 0 0 1 5-5h214.3a5 5 0 0 1 5 5v35" fill="#dfe3e8"/><path d="M-288.82 390.5a5 5 0 0 1 5-5h214.3a5 5 0 0 1 5 5v132a5 5 0 0 1-5 5h-214.3a5 5 0 0 1-5-5zM-288.82 425.5h224.3" stroke="#282c33" fill="none"/><use xlink:href="#u" transform="matrix(1,0,0,1,-278.8161303185632,385.4999500000001) translate(0 24.044444444444444)"/><use xlink:href="#b" transform="matrix(1,0,0,1,-283.8161303185632,427.9999500000001) translate(0 18.544444444444444)"/><use xlink:href="#s" transform="matrix(1,0,0,1,-283.8161303185632,461.9999500000001) translate(0 18.544444444444444)"/><use xlink:href="#t" transform="matrix(1,0,0,1,-283.8161303185632,495.9999500000001) translate(0 18.544444444444444)"/><path d="M731.18 45a5 5 0 0 1 5-5h214.3a5 5 0 0 1 5 5v200a5 5 0 0 1-5 5h-214.3a5 5 0 0 1-5-5z" fill="#fff"/><path d="M731.18 80V45a5 5 0 0 1 5-5h214.3a5 5 0 0 1 5 5v35" fill="#dfe3e8"/><path d="M731.18 45a5 5 0 0 1 5-5h214.3a5 5 0 0 1 5 5v200a5 5 0 0 1-5 5h-214.3a5 5 0 0 1-5-5zM731.18 80h224.3" stroke="#282c33" fill="none"/><use xlink:href="#v" transform="matrix(1,0,0,1,741.1838696814369,40) translate(0 24.044444444444444)"/><use xlink:href="#b" transform="matrix(1,0,0,1,736.1838696814369,82.5) translate(0 18.544444444444444)"/><use xlink:href="#c" transform="matrix(1,0,0,1,736.1838696814369,116.5) translate(0 18.544444444444444)"/><use xlink:href="#w" transform="matrix(1,0,0,1,736.1838696814369,150.5) translate(0 18.544444444444444)"/><use xlink:href="#x" transform="matrix(1,0,0,1,736.1838696814369,184.5) translate(0 18.544444444444444)"/><use xlink:href="#y" transform="matrix(1,0,0,1,736.1838696814369,218.5) translate(0 18.544444444444444)"/><path d="M51.18 171.16a5 5 0 0 1 5-5h214.3a5 5 0 0 1 5 5v302a5 5 0 0 1-5 5H56.18a5 5 0 0 1-5-5z" fill="#fff"/><path d="M51.18 206.16v-35a5 5 0 0 1 5-5h214.3a5 5 0 0 1 5 5v35" fill="#dfe3e8"/><path d="M51.18 171.16a5 5 0 0 1 5-5h214.3a5 5 0 0 1 5 5v302a5 5 0 0 1-5 5H56.18a5 5 0 0 1-5-5zM51.18 206.16h224.3" stroke="#282c33" fill="none"/><use xlink:href="#z" transform="matrix(1,0,0,1,61.18386968143682,166.16489922519145) translate(0 24.044444444444444)"/><use xlink:href="#b" transform="matrix(1,0,0,1,56.18386968143682,208.66489922519145) translate(0 18.544444444444444)"/><use xlink:href="#c" transform="matrix(1,0,0,1,56.18386968143682,242.66489922519145) translate(0 18.544444444444444)"/><use xlink:href="#A" transform="matrix(1,0,0,1,56.18386968143682,276.66489922519145) translate(0 18.544444444444444)"/><use xlink:href="#w" transform="matrix(1,0,0,1,56.18386968143682,310.66489922519145) translate(0 18.544444444444444)"/><use xlink:href="#x" transform="matrix(1,0,0,1,56.18386968143682,344.66489922519145) translate(0 18.544444444444444)"/><use xlink:href="#y" transform="matrix(1,0,0,1,56.18386968143682,378.66489922519145) translate(0 18.544444444444444)"/><use xlink:href="#B" transform="matrix(1,0,0,1,56.18386968143682,412.66489922519145) translate(0 18.544444444444444)"/><use xlink:href="#C" transform="matrix(1,0,0,1,56.18386968143682,446.66489922519145) translate(0 18.544444444444444)"/><path d="M635.98 135h75.3" stroke="#3a414a" fill="none"/><path d="M635.98 145v-20M615.98 135h20" stroke="#3a414a" fill="#fff"/><path d="M730.46 145l-20-10 20-10" stroke="#3a414a" fill="#fff" fill-opacity="0"/><path d="M730.46 135h-20" stroke="#3a414a" fill="#fff"/><path d="M635.98 408.33h31.35a6 6 0 0 0 6-6v-197.1a6 6 0 0 1 6-6h31.94" stroke="#3a414a" fill="none"/><path d="M635.98 418.33v-20M615.98 408.33h20" stroke="#3a414a" fill="#fff"/><path d="M730.46 209.24l-20-10 20-10" stroke="#3a414a" fill="#fff" fill-opacity="0"/><path d="M730.46 199.24h-20" stroke="#3a414a" fill="#fff"/><path d="M-176.67-20v-44a6 6 0 0 1 6-6h1008a6 6 0 0 1 6 6v84.1" stroke="#3a414a" fill="none"/><path d="M-166.67-20h-20M-176.67 0v-20" stroke="#3a414a" fill="#fff"/><path d="M833.33 39.28l10-20 10 20" stroke="#3a414a" fill="#fff" fill-opacity="0"/><path d="M843.33 39.28v-20" stroke="#3a414a" fill="#fff"/><path d="M843.33 319.5v-49.6" stroke="#3a414a" fill="none"/><path d="M853.33 319.5h-20M843.33 339.5v-20" stroke="#3a414a" fill="#fff"/><path d="M853.33 250.72l-10 20-10-20" stroke="#3a414a" fill="#fff" fill-opacity="0"/><path d="M843.33 250.72v20" stroke="#3a414a" fill="#fff"/><path d="M-44.02 57.44h201.35a6 6 0 0 1 6 6v82.8" stroke="#3a414a" fill="none"/><path d="M-44.02 67.44v-20M-64.02 57.44h20" stroke="#3a414a" fill="#fff"/><path d="M153.33 165.44l10-20 10 20" stroke="#3a414a" fill="#fff" fill-opacity="0"/><path d="M163.33 165.44v-20" stroke="#3a414a" fill="#fff"/><path d="M370.68 237.16H295.4" stroke="#3a414a" fill="none"/><path d="M370.68 227.16v20M390.68 237.16h-20" stroke="#3a414a" fill="#fff"/><path d="M276.2 227.16l20 10-20 10" stroke="#3a414a" fill="#fff" fill-opacity="0"/><path d="M276.2 237.16h20" stroke="#3a414a" fill="#fff"/><path d="M370.68 408.33H295.4" stroke="#3a414a" fill="none"/><path d="M370.68 398.33v20M390.68 408.33h-20" stroke="#3a414a" fill="#fff"/><path d="M276.2 398.33l20 10-20 10" stroke="#3a414a" fill="#fff" fill-opacity="0"/><path d="M276.2 408.33h20" stroke="#3a414a" fill="#fff"/><path d="M-44.02 442.5h75.3" stroke="#3a414a" fill="none"/><path d="M-44.02 452.5v-20M-64.02 442.5h20" stroke="#3a414a" fill="#fff"/><path d="M50.46 452.5l-20-10 20-10" stroke="#3a414a" fill="#fff" fill-opacity="0"/><path d="M50.46 442.5h-20" stroke="#3a414a" fill="#fff"/><path d="M-44.02 291.03h75.3" stroke="#3a414a" fill="none"/><path d="M-44.02 301.03v-20M-64.02 291.03h20" stroke="#3a414a" fill="#fff"/><path d="M50.46 301.03l-20-10 20-10" stroke="#3a414a" fill="#fff" fill-opacity="0"/><path d="M50.46 291.03h-20" stroke="#3a414a" fill="#fff"/><path d="M843.33 536.5V584a6 6 0 0 1-6 6h-668a6 6 0 0 1-6-6v-85.92" stroke="#3a414a" fill="none"/><path d="M833.33 536.5h20M843.33 516.5v20" stroke="#3a414a" fill="#fff"/><path d="M173.33 478.9l-10 20-10-20" stroke="#3a414a" fill="#fff" fill-opacity="0"/><path d="M163.33 478.9v20" stroke="#3a414a" fill="#fff"/><defs><path fill="#333" d="M88-194c31-1 46 15 58 34l-1-101h50l1 261h-48c-2-10 0-23-3-31C134-8 116 4 84 4 32 4 16-41 15-95c0-56 19-97 73-99zm17 164c33 0 40-30 41-66 1-37-9-64-41-64s-38 30-39 65c0 43 13 65 39 65" id="D"/><path fill="#333" d="M25-224v-37h50v37H25zM25 0v-190h50V0H25" id="E"/><path fill="#333" d="M220-157c-53 9-28 100-34 157h-49v-107c1-27-5-49-29-50C55-147 81-57 75 0H25l-1-190h47c2 12-1 28 3 38 10-53 101-56 108 0 13-22 24-43 59-42 82 1 51 116 57 194h-49v-107c-1-25-5-48-29-50" id="F"/><path fill="#333" d="M-4 44V30h207v14H-4" id="G"/><path fill="#333" d="M133-34C117-15 103 5 69 4 32 3 11-16 11-54c-1-60 55-63 116-61 1-26-3-47-28-47-18 1-26 9-28 27l-52-2c7-38 36-58 82-57s74 22 75 68l1 82c-1 14 12 18 25 15v27c-30 8-71 5-69-32zm-48 3c29 0 43-24 42-57-32 0-66-3-65 30 0 17 8 27 23 27" id="H"/><path fill="#333" d="M115-3C79 11 28 4 28-45v-112H4v-33h27l15-45h31v45h36v33H77v99c-1 23 16 31 38 25v30" id="I"/><path fill="#333" d="M185-48c-13 30-37 53-82 52C43 2 14-33 14-96s30-98 90-98c62 0 83 45 84 108H66c0 31 8 55 39 56 18 0 30-7 34-22zm-45-69c5-46-57-63-70-21-2 6-4 13-4 21h74" id="J"/><g id="a"><use transform="matrix(0.056172839506172814,0,0,0.056172839506172814,0,0)" xlink:href="#D"/><use transform="matrix(0.056172839506172814,0,0,0.056172839506172814,12.301851851851847,0)" xlink:href="#E"/><use transform="matrix(0.056172839506172814,0,0,0.056172839506172814,17.91913580246913,0)" xlink:href="#F"/><use transform="matrix(0.056172839506172814,0,0,0.056172839506172814,35.89444444444443,0)" xlink:href="#G"/><use transform="matrix(0.056172839506172814,0,0,0.056172839506172814,47.129012345678994,0)" xlink:href="#D"/><use transform="matrix(0.056172839506172814,0,0,0.056172839506172814,59.43086419753084,0)" xlink:href="#H"/><use transform="matrix(0.056172839506172814,0,0,0.056172839506172814,70.6654320987654,0)" xlink:href="#I"/><use transform="matrix(0.056172839506172814,0,0,0.056172839506172814,77.34999999999995,0)" xlink:href="#J"/></g><path fill="#333" d="M24-231v-30h32v30H24zM24 0v-190h32V0H24" id="K"/><path fill="#333" d="M85-194c31 0 48 13 60 33l-1-100h32l1 261h-30c-2-10 0-23-3-31C134-8 116 4 85 4 32 4 16-35 15-94c0-66 23-100 70-100zm9 24c-40 0-46 34-46 75 0 40 6 74 45 74 42 0 51-32 51-76 0-42-9-74-50-73" id="L"/><g id="b"><use transform="matrix(0.056172839506172814,0,0,0.056172839506172814,0,0)" xlink:href="#K"/><use transform="matrix(0.056172839506172814,0,0,0.056172839506172814,4.437654320987653,0)" xlink:href="#L"/></g><path fill="#333" d="M141-36C126-15 110 5 73 4 37 3 15-17 15-53c-1-64 63-63 125-63 3-35-9-54-41-54-24 1-41 7-42 31l-33-3c5-37 33-52 76-52 45 0 72 20 72 64v82c-1 20 7 32 28 27v20c-31 9-61-2-59-35zM48-53c0 20 12 33 32 33 41-3 63-29 60-74-43 2-92-5-92 41" id="M"/><path fill="#333" d="M59-47c-2 24 18 29 38 22v24C64 9 27 4 27-40v-127H5v-23h24l9-43h21v43h35v23H59v120" id="N"/><path fill="#333" d="M100-194c63 0 86 42 84 106H49c0 40 14 67 53 68 26 1 43-12 49-29l28 8c-11 28-37 45-77 45C44 4 14-33 15-96c1-61 26-98 85-98zm52 81c6-60-76-77-97-28-3 7-6 17-6 28h103" id="O"/><g id="c"><use transform="matrix(0.056172839506172814,0,0,0.056172839506172814,0,0)" xlink:href="#L"/><use transform="matrix(0.056172839506172814,0,0,0.056172839506172814,11.234567901234563,0)" xlink:href="#M"/><use transform="matrix(0.056172839506172814,0,0,0.056172839506172814,22.469135802469125,0)" xlink:href="#N"/><use transform="matrix(0.056172839506172814,0,0,0.056172839506172814,28.086419753086407,0)" xlink:href="#O"/></g><path fill="#333" d="M210-169c-67 3-38 105-44 169h-31v-121c0-29-5-50-35-48C34-165 62-65 56 0H25l-1-190h30c1 10-1 24 2 32 10-44 99-50 107 0 11-21 27-35 58-36 85-2 47 119 55 194h-31v-121c0-29-5-49-35-48" id="P"/><path fill="#333" d="M100-194c62-1 85 37 85 99 1 63-27 99-86 99S16-35 15-95c0-66 28-99 85-99zM99-20c44 1 53-31 53-75 0-43-8-75-51-75s-53 32-53 75 10 74 51 75" id="Q"/><path fill="#333" d="M117-194c89-4 53 116 60 194h-32v-121c0-31-8-49-39-48C34-167 62-67 57 0H25l-1-190h30c1 10-1 24 2 32 11-22 29-35 61-36" id="R"/><path fill="#333" d="M106-169C34-169 62-67 57 0H25v-261h32l-1 103c12-21 28-36 61-36 89 0 53 116 60 194h-32v-121c2-32-8-49-39-48" id="S"/><g id="d"><use transform="matrix(0.056172839506172814,0,0,0.056172839506172814,0,0)" xlink:href="#P"/><use transform="matrix(0.056172839506172814,0,0,0.056172839506172814,16.795679012345673,0)" xlink:href="#Q"/><use transform="matrix(0.056172839506172814,0,0,0.056172839506172814,28.030246913580235,0)" xlink:href="#R"/><use transform="matrix(0.056172839506172814,0,0,0.056172839506172814,39.2648148148148,0)" xlink:href="#N"/><use transform="matrix(0.056172839506172814,0,0,0.056172839506172814,44.882098765432076,0)" xlink:href="#S"/></g><path fill="#333" d="M145-31C134-9 116 4 85 4 32 4 16-35 15-94c0-59 17-99 70-100 32-1 48 14 60 33 0-11-1-24 2-32h30l-1 268h-32zM93-21c41 0 51-33 51-76s-8-73-50-73c-40 0-46 35-46 75s5 74 45 74" id="T"/><path fill="#333" d="M84 4C-5 8 30-112 23-190h32v120c0 31 7 50 39 49 72-2 45-101 50-169h31l1 190h-30c-1-10 1-25-2-33-11 22-28 36-60 37" id="U"/><path fill="#333" d="M114-163C36-179 61-72 57 0H25l-1-190h30c1 12-1 29 2 39 6-27 23-49 58-41v29" id="V"/><g id="e"><use transform="matrix(0.056172839506172814,0,0,0.056172839506172814,0,0)" xlink:href="#T"/><use transform="matrix(0.056172839506172814,0,0,0.056172839506172814,11.234567901234563,0)" xlink:href="#U"/><use transform="matrix(0.056172839506172814,0,0,0.056172839506172814,22.469135802469125,0)" xlink:href="#M"/><use transform="matrix(0.056172839506172814,0,0,0.056172839506172814,33.70370370370369,0)" xlink:href="#V"/><use transform="matrix(0.056172839506172814,0,0,0.056172839506172814,40.388271604938254,0)" xlink:href="#N"/><use transform="matrix(0.056172839506172814,0,0,0.056172839506172814,46.00555555555553,0)" xlink:href="#O"/><use transform="matrix(0.056172839506172814,0,0,0.056172839506172814,57.240123456790094,0)" xlink:href="#V"/></g><path fill="#333" d="M179-190L93 31C79 59 56 82 12 73V49c39 6 53-20 64-50L1-190h34L92-34l54-156h33" id="W"/><g id="f"><use transform="matrix(0.056172839506172814,0,0,0.056172839506172814,0,0)" xlink:href="#W"/><use transform="matrix(0.056172839506172814,0,0,0.056172839506172814,10.111111111111107,0)" xlink:href="#O"/><use transform="matrix(0.056172839506172814,0,0,0.056172839506172814,21.34567901234567,0)" xlink:href="#M"/><use transform="matrix(0.056172839506172814,0,0,0.056172839506172814,32.58024691358023,0)" xlink:href="#V"/></g><g id="g"><use transform="matrix(0.056172839506172814,0,0,0.056172839506172814,0,0)" xlink:href="#D"/><use transform="matrix(0.056172839506172814,0,0,0.056172839506172814,12.301851851851847,0)" xlink:href="#E"/><use transform="matrix(0.056172839506172814,0,0,0.056172839506172814,17.91913580246913,0)" xlink:href="#F"/><use transform="matrix(0.056172839506172814,0,0,0.056172839506172814,35.89444444444443,0)" xlink:href="#G"/><use transform="matrix(0.056172839506172814,0,0,0.056172839506172814,47.129012345678994,0)" xlink:href="#I"/><use transform="matrix(0.056172839506172814,0,0,0.056172839506172814,53.81358024691356,0)" xlink:href="#E"/><use transform="matrix(0.056172839506172814,0,0,0.056172839506172814,59.43086419753084,0)" xlink:href="#F"/><use transform="matrix(0.056172839506172814,0,0,0.056172839506172814,77.40617283950614,0)" xlink:href="#J"/></g><g id="h"><use transform="matrix(0.056172839506172814,0,0,0.056172839506172814,0,0)" xlink:href="#S"/><use transform="matrix(0.056172839506172814,0,0,0.056172839506172814,11.234567901234563,0)" xlink:href="#Q"/><use transform="matrix(0.056172839506172814,0,0,0.056172839506172814,22.469135802469125,0)" xlink:href="#U"/><use transform="matrix(0.056172839506172814,0,0,0.056172839506172814,33.70370370370369,0)" xlink:href="#V"/></g><g id="i"><use transform="matrix(0.056172839506172814,0,0,0.056172839506172814,0,0)" xlink:href="#P"/><use transform="matrix(0.056172839506172814,0,0,0.056172839506172814,16.795679012345673,0)" xlink:href="#K"/><use transform="matrix(0.056172839506172814,0,0,0.056172839506172814,21.233333333333327,0)" xlink:href="#R"/><use transform="matrix(0.056172839506172814,0,0,0.056172839506172814,32.46790123456789,0)" xlink:href="#U"/><use transform="matrix(0.056172839506172814,0,0,0.056172839506172814,43.70246913580245,0)" xlink:href="#N"/><use transform="matrix(0.056172839506172814,0,0,0.056172839506172814,49.31975308641974,0)" xlink:href="#O"/></g><path fill="#333" d="M135-143c-3-34-86-38-87 0 15 53 115 12 119 90S17 21 10-45l28-5c4 36 97 45 98 0-10-56-113-15-118-90-4-57 82-63 122-42 12 7 21 19 24 35" id="X"/><path fill="#333" d="M96-169c-40 0-48 33-48 73s9 75 48 75c24 0 41-14 43-38l32 2c-6 37-31 61-74 61-59 0-76-41-82-99-10-93 101-131 147-64 4 7 5 14 7 22l-32 3c-4-21-16-35-41-35" id="Y"/><g id="j"><use transform="matrix(0.056172839506172814,0,0,0.056172839506172814,0,0)" xlink:href="#X"/><use transform="matrix(0.056172839506172814,0,0,0.056172839506172814,10.111111111111107,0)" xlink:href="#O"/><use transform="matrix(0.056172839506172814,0,0,0.056172839506172814,21.34567901234567,0)" xlink:href="#Y"/><use transform="matrix(0.056172839506172814,0,0,0.056172839506172814,31.456790123456777,0)" xlink:href="#Q"/><use transform="matrix(0.056172839506172814,0,0,0.056172839506172814,42.69135802469134,0)" xlink:href="#R"/><use transform="matrix(0.056172839506172814,0,0,0.056172839506172814,53.9259259259259,0)" xlink:href="#L"/></g><path fill="#333" d="M195-6C206 82 75 100 31 46c-4-6-6-13-8-21l49-6c3 16 16 24 34 25 40 0 42-37 40-79-11 22-30 35-61 35-53 0-70-43-70-97 0-56 18-96 73-97 30 0 46 14 59 34l2-30h47zm-90-29c32 0 41-27 41-63 0-35-9-62-40-62-32 0-39 29-40 63 0 36 9 62 39 62" id="Z"/><path fill="#333" d="M85 4C-2 5 27-109 22-190h50c7 57-23 150 33 157 60-5 35-97 40-157h50l1 190h-47c-2-12 1-28-3-38-12 25-28 42-61 42" id="aa"/><path fill="#333" d="M137-138c1-29-70-34-71-4 15 46 118 7 119 86 1 83-164 76-172 9l43-7c4 19 20 25 44 25 33 8 57-30 24-41C81-84 22-81 20-136c-2-80 154-74 161-7" id="ab"/><g id="k"><use transform="matrix(0.056172839506172814,0,0,0.056172839506172814,0,0)" xlink:href="#D"/><use transform="matrix(0.056172839506172814,0,0,0.056172839506172814,12.301851851851847,0)" xlink:href="#E"/><use transform="matrix(0.056172839506172814,0,0,0.056172839506172814,17.91913580246913,0)" xlink:href="#F"/><use transform="matrix(0.056172839506172814,0,0,0.056172839506172814,35.89444444444443,0)" xlink:href="#G"/><use transform="matrix(0.056172839506172814,0,0,0.056172839506172814,47.129012345678994,0)" xlink:href="#Z"/><use transform="matrix(0.056172839506172814,0,0,0.056172839506172814,59.43086419753084,0)" xlink:href="#aa"/><use transform="matrix(0.056172839506172814,0,0,0.056172839506172814,71.73271604938269,0)" xlink:href="#J"/><use transform="matrix(0.056172839506172814,0,0,0.056172839506172814,82.96728395061726,0)" xlink:href="#ab"/><use transform="matrix(0.056172839506172814,0,0,0.056172839506172814,94.20185185185181,0)" xlink:href="#I"/></g><path fill="#333" d="M24 0v-261h32V0H24" id="ac"/><g id="l"><use transform="matrix(0.056172839506172814,0,0,0.056172839506172814,0,0)" xlink:href="#O"/><use transform="matrix(0.056172839506172814,0,0,0.056172839506172814,11.234567901234563,0)" xlink:href="#P"/><use transform="matrix(0.056172839506172814,0,0,0.056172839506172814,28.030246913580235,0)" xlink:href="#M"/><use transform="matrix(0.056172839506172814,0,0,0.056172839506172814,39.2648148148148,0)" xlink:href="#K"/><use transform="matrix(0.056172839506172814,0,0,0.056172839506172814,43.70246913580245,0)" xlink:href="#ac"/></g><path fill="#333" d="M115-194c53 0 69 39 70 98 0 66-23 100-70 100C84 3 66-7 56-30L54 0H23l1-261h32v101c10-23 28-34 59-34zm-8 174c40 0 45-34 45-75 0-40-5-75-45-74-42 0-51 32-51 76 0 43 10 73 51 73" id="ad"/><g id="m"><use transform="matrix(0.056172839506172814,0,0,0.056172839506172814,0,0)" xlink:href="#L"/><use transform="matrix(0.056172839506172814,0,0,0.056172839506172814,11.234567901234563,0)" xlink:href="#Q"/><use transform="matrix(0.056172839506172814,0,0,0.056172839506172814,22.469135802469125,0)" xlink:href="#ad"/></g><path fill="#333" d="M177-190C167-65 218 103 67 71c-23-6-38-20-44-43l32-5c15 47 100 32 89-28v-30C133-14 115 1 83 1 29 1 15-40 15-95c0-56 16-97 71-98 29-1 48 16 59 35 1-10 0-23 2-32h30zM94-22c36 0 50-32 50-73 0-42-14-75-50-75-39 0-46 34-46 75s6 73 46 73" id="ae"/><g id="n"><use transform="matrix(0.056172839506172814,0,0,0.056172839506172814,0,0)" xlink:href="#ae"/><use transform="matrix(0.056172839506172814,0,0,0.056172839506172814,11.234567901234563,0)" xlink:href="#O"/><use transform="matrix(0.056172839506172814,0,0,0.056172839506172814,22.469135802469125,0)" xlink:href="#R"/><use transform="matrix(0.056172839506172814,0,0,0.056172839506172814,33.70370370370369,0)" xlink:href="#L"/><use transform="matrix(0.056172839506172814,0,0,0.056172839506172814,44.93827160493825,0)" xlink:href="#O"/><use transform="matrix(0.056172839506172814,0,0,0.056172839506172814,56.172839506172814,0)" xlink:href="#V"/></g><path fill="#333" d="M25 0v-261h50V0H25" id="af"/><path fill="#333" d="M110-194c64 0 96 36 96 99 0 64-35 99-97 99-61 0-95-36-95-99 0-62 34-99 96-99zm-1 164c35 0 45-28 45-65 0-40-10-65-43-65-34 0-45 26-45 65 0 36 10 65 43 65" id="ag"/><path fill="#333" d="M190-63c-7 42-38 67-86 67-59 0-84-38-90-98-12-110 154-137 174-36l-49 2c-2-19-15-32-35-32-30 0-35 28-38 64-6 74 65 87 74 30" id="ah"/><path fill="#333" d="M135-194c87-1 58 113 63 194h-50c-7-57 23-157-34-157-59 0-34 97-39 157H25l-1-190h47c2 12-1 28 3 38 12-26 28-41 61-42" id="ai"/><g id="o"><use transform="matrix(0.056172839506172814,0,0,0.056172839506172814,0,0)" xlink:href="#D"/><use transform="matrix(0.056172839506172814,0,0,0.056172839506172814,12.301851851851847,0)" xlink:href="#E"/><use transform="matrix(0.056172839506172814,0,0,0.056172839506172814,17.91913580246913,0)" xlink:href="#F"/><use transform="matrix(0.056172839506172814,0,0,0.056172839506172814,35.89444444444443,0)" xlink:href="#G"/><use transform="matrix(0.056172839506172814,0,0,0.056172839506172814,47.129012345678994,0)" xlink:href="#af"/><use transform="matrix(0.056172839506172814,0,0,0.056172839506172814,52.74629629629628,0)" xlink:href="#ag"/><use transform="matrix(0.056172839506172814,0,0,0.056172839506172814,65.04814814814813,0)" xlink:href="#ah"/><use transform="matrix(0.056172839506172814,0,0,0.056172839506172814,76.28271604938269,0)" xlink:href="#H"/><use transform="matrix(0.056172839506172814,0,0,0.056172839506172814,87.51728395061724,0)" xlink:href="#I"/><use transform="matrix(0.056172839506172814,0,0,0.056172839506172814,94.2018518518518,0)" xlink:href="#E"/><use transform="matrix(0.056172839506172814,0,0,0.056172839506172814,99.81913580246908,0)" xlink:href="#ag"/><use transform="matrix(0.056172839506172814,0,0,0.056172839506172814,112.12098765432093,0)" xlink:href="#ai"/></g><g id="p"><use transform="matrix(0.056172839506172814,0,0,0.056172839506172814,0,0)" xlink:href="#X"/><use transform="matrix(0.056172839506172814,0,0,0.056172839506172814,10.111111111111107,0)" xlink:href="#N"/><use transform="matrix(0.056172839506172814,0,0,0.056172839506172814,15.728395061728389,0)" xlink:href="#M"/><use transform="matrix(0.056172839506172814,0,0,0.056172839506172814,26.96296296296295,0)" xlink:href="#N"/><use transform="matrix(0.056172839506172814,0,0,0.056172839506172814,32.58024691358023,0)" xlink:href="#O"/></g><g id="q"><use transform="matrix(0.056172839506172814,0,0,0.056172839506172814,0,0)" xlink:href="#Y"/><use transform="matrix(0.056172839506172814,0,0,0.056172839506172814,10.111111111111107,0)" xlink:href="#Q"/><use transform="matrix(0.056172839506172814,0,0,0.056172839506172814,21.34567901234567,0)" xlink:href="#U"/><use transform="matrix(0.056172839506172814,0,0,0.056172839506172814,32.58024691358023,0)" xlink:href="#R"/><use transform="matrix(0.056172839506172814,0,0,0.056172839506172814,43.814814814814795,0)" xlink:href="#N"/><use transform="matrix(0.056172839506172814,0,0,0.056172839506172814,49.43209876543207,0)" xlink:href="#V"/><use transform="matrix(0.056172839506172814,0,0,0.056172839506172814,56.11666666666664,0)" xlink:href="#W"/></g><path fill="#333" d="M135-150c-39-12-60 13-60 57V0H25l-1-190h47c2 13-1 29 3 40 6-28 27-53 61-41v41" id="aj"/><path fill="#333" d="M123 10C108 53 80 86 19 72V37c35 8 53-11 59-39L3-190h52l48 148c12-52 28-100 44-148h51" id="ak"/><path fill="#333" d="M135-194c53 0 70 44 70 98 0 56-19 98-73 100-31 1-45-17-59-34 3 33 2 69 2 105H25l-1-265h48c2 10 0 23 3 31 11-24 29-35 60-35zM114-30c33 0 39-31 40-66 0-38-9-64-40-64-56 0-55 130 0 130" id="al"/><g id="r"><use transform="matrix(0.056172839506172814,0,0,0.056172839506172814,0,0)" xlink:href="#D"/><use transform="matrix(0.056172839506172814,0,0,0.056172839506172814,12.301851851851847,0)" xlink:href="#E"/><use transform="matrix(0.056172839506172814,0,0,0.056172839506172814,17.91913580246913,0)" xlink:href="#F"/><use transform="matrix(0.056172839506172814,0,0,0.056172839506172814,35.89444444444443,0)" xlink:href="#G"/><use transform="matrix(0.056172839506172814,0,0,0.056172839506172814,47.129012345678994,0)" xlink:href="#aj"/><use transform="matrix(0.056172839506172814,0,0,0.056172839506172814,54.99320987654319,0)" xlink:href="#ag"/><use transform="matrix(0.056172839506172814,0,0,0.056172839506172814,67.29506172839504,0)" xlink:href="#ag"/><use transform="matrix(0.056172839506172814,0,0,0.056172839506172814,79.59691358024689,0)" xlink:href="#F"/><use transform="matrix(0.056172839506172814,0,0,0.056172839506172814,97.5722222222222,0)" xlink:href="#I"/><use transform="matrix(0.056172839506172814,0,0,0.056172839506172814,104.25679012345675,0)" xlink:href="#ak"/><use transform="matrix(0.056172839506172814,0,0,0.056172839506172814,115.49135802469134,0)" xlink:href="#al"/><use transform="matrix(0.056172839506172814,0,0,0.056172839506172814,127.79320987654317,0)" xlink:href="#J"/></g><g id="s"><use transform="matrix(0.056172839506172814,0,0,0.056172839506172814,0,0)" xlink:href="#R"/><use transform="matrix(0.056172839506172814,0,0,0.056172839506172814,11.234567901234563,0)" xlink:href="#M"/><use transform="matrix(0.056172839506172814,0,0,0.056172839506172814,22.469135802469125,0)" xlink:href="#P"/><use transform="matrix(0.056172839506172814,0,0,0.056172839506172814,39.2648148148148,0)" xlink:href="#O"/></g><path fill="#333" d="M115-194c55 1 70 41 70 98S169 2 115 4C84 4 66-9 55-30l1 105H24l-1-265h31l2 30c10-21 28-34 59-34zm-8 174c40 0 45-34 45-75s-6-73-45-74c-42 0-51 32-51 76 0 43 10 73 51 73" id="am"/><g id="t"><use transform="matrix(0.056172839506172814,0,0,0.056172839506172814,0,0)" xlink:href="#am"/><use transform="matrix(0.056172839506172814,0,0,0.056172839506172814,11.234567901234563,0)" xlink:href="#V"/><use transform="matrix(0.056172839506172814,0,0,0.056172839506172814,17.91913580246913,0)" xlink:href="#K"/><use transform="matrix(0.056172839506172814,0,0,0.056172839506172814,22.356790123456783,0)" xlink:href="#Y"/><use transform="matrix(0.056172839506172814,0,0,0.056172839506172814,32.46790123456789,0)" xlink:href="#O"/></g><g id="u"><use transform="matrix(0.056172839506172814,0,0,0.056172839506172814,0,0)" xlink:href="#D"/><use transform="matrix(0.056172839506172814,0,0,0.056172839506172814,12.301851851851847,0)" xlink:href="#E"/><use transform="matrix(0.056172839506172814,0,0,0.056172839506172814,17.91913580246913,0)" xlink:href="#F"/><use transform="matrix(0.056172839506172814,0,0,0.056172839506172814,35.89444444444443,0)" xlink:href="#G"/><use transform="matrix(0.056172839506172814,0,0,0.056172839506172814,47.129012345678994,0)" xlink:href="#H"/><use transform="matrix(0.056172839506172814,0,0,0.056172839506172814,58.36358024691356,0)" xlink:href="#D"/><use transform="matrix(0.056172839506172814,0,0,0.056172839506172814,70.66543209876541,0)" xlink:href="#D"/><use transform="matrix(0.056172839506172814,0,0,0.056172839506172814,82.96728395061726,0)" xlink:href="#ag"/><use transform="matrix(0.056172839506172814,0,0,0.056172839506172814,95.26913580246911,0)" xlink:href="#ai"/></g><path fill="#333" d="M121-226c-27-7-43 5-38 36h38v33H83V0H34v-157H6v-33h28c-9-59 32-81 87-68v32" id="an"/><path fill="#333" d="M135-194c52 0 70 43 70 98 0 56-19 99-73 100-30 1-46-15-58-35L72 0H24l1-261h50v104c11-23 29-37 60-37zM114-30c31 0 40-27 40-66 0-37-7-63-39-63s-41 28-41 65c0 36 8 64 40 64" id="ao"/><path fill="#333" d="M147 0L96-86 75-71V0H25v-261h50v150l67-79h53l-66 74L201 0h-54" id="ap"/><g id="v"><use transform="matrix(0.056172839506172814,0,0,0.056172839506172814,0,0)" xlink:href="#an"/><use transform="matrix(0.056172839506172814,0,0,0.056172839506172814,6.684567901234565,0)" xlink:href="#ah"/><use transform="matrix(0.056172839506172814,0,0,0.056172839506172814,17.91913580246913,0)" xlink:href="#I"/><use transform="matrix(0.056172839506172814,0,0,0.056172839506172814,24.603703703703694,0)" xlink:href="#G"/><use transform="matrix(0.056172839506172814,0,0,0.056172839506172814,35.83827160493826,0)" xlink:href="#ao"/><use transform="matrix(0.056172839506172814,0,0,0.056172839506172814,48.14012345679011,0)" xlink:href="#ag"/><use transform="matrix(0.056172839506172814,0,0,0.056172839506172814,60.44197530864196,0)" xlink:href="#ag"/><use transform="matrix(0.056172839506172814,0,0,0.056172839506172814,72.74382716049381,0)" xlink:href="#ap"/><use transform="matrix(0.056172839506172814,0,0,0.056172839506172814,83.97839506172838,0)" xlink:href="#E"/><use transform="matrix(0.056172839506172814,0,0,0.056172839506172814,89.59567901234566,0)" xlink:href="#ai"/><use transform="matrix(0.056172839506172814,0,0,0.056172839506172814,101.8975308641975,0)" xlink:href="#Z"/></g><g id="w"><use transform="matrix(0.056172839506172814,0,0,0.056172839506172814,0,0)" xlink:href="#ae"/><use transform="matrix(0.056172839506172814,0,0,0.056172839506172814,11.234567901234563,0)" xlink:href="#U"/><use transform="matrix(0.056172839506172814,0,0,0.056172839506172814,22.469135802469125,0)" xlink:href="#O"/><use transform="matrix(0.056172839506172814,0,0,0.056172839506172814,33.70370370370369,0)" xlink:href="#X"/><use transform="matrix(0.056172839506172814,0,0,0.056172839506172814,43.814814814814795,0)" xlink:href="#N"/></g><path fill="#333" d="M-5 72V49h209v23H-5" id="aq"/><g id="x"><use transform="matrix(0.056172839506172814,0,0,0.056172839506172814,0,0)" xlink:href="#ae"/><use transform="matrix(0.056172839506172814,0,0,0.056172839506172814,11.234567901234563,0)" xlink:href="#U"/><use transform="matrix(0.056172839506172814,0,0,0.056172839506172814,22.469135802469125,0)" xlink:href="#O"/><use transform="matrix(0.056172839506172814,0,0,0.056172839506172814,33.70370370370369,0)" xlink:href="#X"/><use transform="matrix(0.056172839506172814,0,0,0.056172839506172814,43.814814814814795,0)" xlink:href="#N"/><use transform="matrix(0.056172839506172814,0,0,0.056172839506172814,49.43209876543207,0)" xlink:href="#aq"/><use transform="matrix(0.056172839506172814,0,0,0.056172839506172814,60.666666666666636,0)" xlink:href="#ac"/><use transform="matrix(0.056172839506172814,0,0,0.056172839506172814,65.10432098765429,0)" xlink:href="#Q"/><use transform="matrix(0.056172839506172814,0,0,0.056172839506172814,76.33888888888885,0)" xlink:href="#Y"/><use transform="matrix(0.056172839506172814,0,0,0.056172839506172814,86.44999999999996,0)" xlink:href="#M"/><use transform="matrix(0.056172839506172814,0,0,0.056172839506172814,97.68456790123452,0)" xlink:href="#N"/><use transform="matrix(0.056172839506172814,0,0,0.056172839506172814,103.3018518518518,0)" xlink:href="#K"/><use transform="matrix(0.056172839506172814,0,0,0.056172839506172814,107.73950617283944,0)" xlink:href="#Q"/><use transform="matrix(0.056172839506172814,0,0,0.056172839506172814,118.974074074074,0)" xlink:href="#R"/></g><g id="y"><use transform="matrix(0.056172839506172814,0,0,0.056172839506172814,0,0)" xlink:href="#V"/><use transform="matrix(0.056172839506172814,0,0,0.056172839506172814,6.684567901234565,0)" xlink:href="#Q"/><use transform="matrix(0.056172839506172814,0,0,0.056172839506172814,17.91913580246913,0)" xlink:href="#Q"/><use transform="matrix(0.056172839506172814,0,0,0.056172839506172814,29.15370370370369,0)" xlink:href="#P"/><use transform="matrix(0.056172839506172814,0,0,0.056172839506172814,45.949382716049364,0)" xlink:href="#aq"/><use transform="matrix(0.056172839506172814,0,0,0.056172839506172814,57.18395061728393,0)" xlink:href="#N"/><use transform="matrix(0.056172839506172814,0,0,0.056172839506172814,62.801234567901204,0)" xlink:href="#W"/><use transform="matrix(0.056172839506172814,0,0,0.056172839506172814,72.9123456790123,0)" xlink:href="#am"/><use transform="matrix(0.056172839506172814,0,0,0.056172839506172814,84.14691358024686,0)" xlink:href="#O"/></g><g id="z"><use transform="matrix(0.056172839506172814,0,0,0.056172839506172814,0,0)" xlink:href="#an"/><use transform="matrix(0.056172839506172814,0,0,0.056172839506172814,6.684567901234565,0)" xlink:href="#ah"/><use transform="matrix(0.056172839506172814,0,0,0.056172839506172814,17.91913580246913,0)" xlink:href="#I"/><use transform="matrix(0.056172839506172814,0,0,0.056172839506172814,24.603703703703694,0)" xlink:href="#G"/><use transform="matrix(0.056172839506172814,0,0,0.056172839506172814,35.83827160493826,0)" xlink:href="#H"/><use transform="matrix(0.056172839506172814,0,0,0.056172839506172814,47.07283950617282,0)" xlink:href="#F"/><use transform="matrix(0.056172839506172814,0,0,0.056172839506172814,65.04814814814812,0)" xlink:href="#J"/><use transform="matrix(0.056172839506172814,0,0,0.056172839506172814,76.28271604938269,0)" xlink:href="#ai"/><use transform="matrix(0.056172839506172814,0,0,0.056172839506172814,88.58456790123454,0)" xlink:href="#E"/><use transform="matrix(0.056172839506172814,0,0,0.056172839506172814,94.20185185185181,0)" xlink:href="#I"/><use transform="matrix(0.056172839506172814,0,0,0.056172839506172814,100.88641975308637,0)" xlink:href="#E"/><use transform="matrix(0.056172839506172814,0,0,0.056172839506172814,106.50370370370365,0)" xlink:href="#J"/><use transform="matrix(0.056172839506172814,0,0,0.056172839506172814,117.73827160493819,0)" xlink:href="#ab"/></g><g id="A"><use transform="matrix(0.056172839506172814,0,0,0.056172839506172814,0,0)" xlink:href="#N"/><use transform="matrix(0.056172839506172814,0,0,0.056172839506172814,5.617283950617281,0)" xlink:href="#K"/><use transform="matrix(0.056172839506172814,0,0,0.056172839506172814,10.054938271604934,0)" xlink:href="#P"/><use transform="matrix(0.056172839506172814,0,0,0.056172839506172814,26.850617283950605,0)" xlink:href="#O"/></g><g id="B"><use transform="matrix(0.056172839506172814,0,0,0.056172839506172814,0,0)" xlink:href="#M"/><use transform="matrix(0.056172839506172814,0,0,0.056172839506172814,11.234567901234563,0)" xlink:href="#L"/><use transform="matrix(0.056172839506172814,0,0,0.056172839506172814,22.469135802469125,0)" xlink:href="#L"/><use transform="matrix(0.056172839506172814,0,0,0.056172839506172814,33.70370370370369,0)" xlink:href="#Q"/><use transform="matrix(0.056172839506172814,0,0,0.056172839506172814,44.93827160493825,0)" xlink:href="#R"/></g><g id="C"><use transform="matrix(0.056172839506172814,0,0,0.056172839506172814,0,0)" xlink:href="#M"/><use transform="matrix(0.056172839506172814,0,0,0.056172839506172814,11.234567901234563,0)" xlink:href="#L"/><use transform="matrix(0.056172839506172814,0,0,0.056172839506172814,22.469135802469125,0)" xlink:href="#L"/><use transform="matrix(0.056172839506172814,0,0,0.056172839506172814,33.70370370370369,0)" xlink:href="#Q"/><use transform="matrix(0.056172839506172814,0,0,0.056172839506172814,44.93827160493825,0)" xlink:href="#R"/><use transform="matrix(0.056172839506172814,0,0,0.056172839506172814,56.172839506172814,0)" xlink:href="#aq"/><use transform="matrix(0.056172839506172814,0,0,0.056172839506172814,67.40740740740738,0)" xlink:href="#T"/><use transform="matrix(0.056172839506172814,0,0,0.056172839506172814,78.64197530864195,0)" xlink:href="#U"/><use transform="matrix(0.056172839506172814,0,0,0.056172839506172814,89.8765432098765,0)" xlink:href="#M"/><use transform="matrix(0.056172839506172814,0,0,0.056172839506172814,101.11111111111106,0)" xlink:href="#R"/><use transform="matrix(0.056172839506172814,0,0,0.056172839506172814,112.34567901234561,0)" xlink:href="#N"/><use transform="matrix(0.056172839506172814,0,0,0.056172839506172814,117.96296296296289,0)" xlink:href="#K"/><use transform="matrix(0.056172839506172814,0,0,0.056172839506172814,122.40061728395054,0)" xlink:href="#N"/><use transform="matrix(0.056172839506172814,0,0,0.056172839506172814,128.01790123456783,0)" xlink:href="#W"/></g></defs></g></svg>