<svg xmlns="http://www.w3.org/2000/svg" xmlns:xlink="http://www.w3.org/1999/xlink" xmlns:lucid="lucid" width="1285.3" height="684"><g transform="translate(900.5 462)" lucid:page-tab-id="0_0"><path d="M-635.2-102.08h25.35a12 12 0 0 0 12-12v-162a12 12 0 0 1 12-12h25.94" stroke="#333" fill="none"/><path d="M-635.2-92.08v-20M-655.2-102.08h20" stroke="#333" fill="#fff"/><path d="M-540.72-278.08l-20-10 20-10" stroke="#333" fill="#fff" fill-opacity="0"/><path d="M-540.72-288.08h-20" stroke="#333" fill="#fff"/><path d="M-880-188.08a5 5 0 0 1 5-5h214.3a5 5 0 0 1 5 5v132a5 5 0 0 1-5 5H-875a5 5 0 0 1-5-5z" fill="#fff"/><path d="M-880-153.08v-35a5 5 0 0 1 5-5h214.3a5 5 0 0 1 5 5v35" fill="#dfe3e8"/><path d="M-880-188.08a5 5 0 0 1 5-5h214.3a5 5 0 0 1 5 5v132a5 5 0 0 1-5 5H-875a5 5 0 0 1-5-5zM-880-153.08h224.3" stroke="#282c33" fill="none"/><use xlink:href="#a" transform="matrix(1,0,0,1,-870,-193.07832174504694) translate(0 24.044444444444444)"/><use xlink:href="#b" transform="matrix(1,0,0,1,-875,-150.57832174504694) translate(0 18.544444444444444)"/><use xlink:href="#c" transform="matrix(1,0,0,1,-875,-116.57832174504694) translate(0 18.544444444444444)"/><use xlink:href="#d" transform="matrix(1,0,0,1,-875,-82.57832174504694) translate(0 18.544444444444444)"/><path d="M-540-408.08a5 5 0 0 1 5-5h214.3a5 5 0 0 1 5 5v234a5 5 0 0 1-5 5H-535a5 5 0 0 1-5-5z" fill="#fff"/><path d="M-540-373.08v-35a5 5 0 0 1 5-5h214.3a5 5 0 0 1 5 5v35" fill="#dfe3e8"/><path d="M-540-408.08a5 5 0 0 1 5-5h214.3a5 5 0 0 1 5 5v234a5 5 0 0 1-5 5H-535a5 5 0 0 1-5-5zM-540-373.08h224.3" stroke="#282c33" fill="none"/><use xlink:href="#e" transform="matrix(1,0,0,1,-530,-413.07832174504694) translate(0 24.044444444444444)"/><use xlink:href="#b" transform="matrix(1,0,0,1,-535,-370.57832174504694) translate(0 18.544444444444444)"/><use xlink:href="#f" transform="matrix(1,0,0,1,-535,-336.57832174504694) translate(0 18.544444444444444)"/><use xlink:href="#g" transform="matrix(1,0,0,1,-535,-302.57832174504694) translate(0 18.544444444444444)"/><use xlink:href="#h" transform="matrix(1,0,0,1,-535,-268.57832174504694) translate(0 18.544444444444444)"/><use xlink:href="#i" transform="matrix(1,0,0,1,-535,-234.57832174504694) translate(0 18.544444444444444)"/><use xlink:href="#j" transform="matrix(1,0,0,1,-535,-200.57832174504694) translate(0 18.544444444444444)"/><path d="M-880-367.58a5 5 0 0 1 5-5h214.3a5 5 0 0 1 5 5v132a5 5 0 0 1-5 5H-875a5 5 0 0 1-5-5z" fill="#fff"/><path d="M-880-332.58v-35a5 5 0 0 1 5-5h214.3a5 5 0 0 1 5 5v35" fill="#dfe3e8"/><path d="M-880-367.58a5 5 0 0 1 5-5h214.3a5 5 0 0 1 5 5v132a5 5 0 0 1-5 5H-875a5 5 0 0 1-5-5zM-880-332.58h224.3" stroke="#282c33" fill="none"/><use xlink:href="#k" transform="matrix(1,0,0,1,-870,-372.5783717450468) translate(0 24.044444444444444)"/><use xlink:href="#l" transform="matrix(1,0,0,1,-875,-330.0783717450468) translate(0 18.544444444444444)"/><use xlink:href="#m" transform="matrix(1,0,0,1,-875,-296.0783717450468) translate(0 18.544444444444444)"/><use xlink:href="#n" transform="matrix(1,0,0,1,-875,-262.0783717450468) translate(0 18.544444444444444)"/><path d="M-540-99.05a5 5 0 0 1 5-5h214.3a5 5 0 0 1 5 5v268a5 5 0 0 1-5 5H-535a5 5 0 0 1-5-5z" fill="#fff"/><path d="M-540-64.05v-35a5 5 0 0 1 5-5h214.3a5 5 0 0 1 5 5v35" fill="#dfe3e8"/><path d="M-540-99.05a5 5 0 0 1 5-5h214.3a5 5 0 0 1 5 5v268a5 5 0 0 1-5 5H-535a5 5 0 0 1-5-5zM-540-64.05h224.3" stroke="#282c33" fill="none"/><use xlink:href="#o" transform="matrix(1,0,0,1,-530,-104.05221449669742) translate(0 24.044444444444444)"/><use xlink:href="#b" transform="matrix(1,0,0,1,-535,-61.55221449669742) translate(0 18.544444444444444)"/><use xlink:href="#f" transform="matrix(1,0,0,1,-535,-27.552214496697417) translate(0 18.544444444444444)"/><use xlink:href="#g" transform="matrix(1,0,0,1,-535,6.447785503302583) translate(0 18.544444444444444)"/><use xlink:href="#h" transform="matrix(1,0,0,1,-535,40.44778550330258) translate(0 18.544444444444444)"/><use xlink:href="#i" transform="matrix(1,0,0,1,-535,74.44778550330258) translate(0 18.544444444444444)"/><use xlink:href="#p" transform="matrix(1,0,0,1,-535,108.44778550330258) translate(0 18.544444444444444)"/><use xlink:href="#j" transform="matrix(1,0,0,1,-535,142.44778550330258) translate(0 18.544444444444444)"/><path d="M-635.2-102.08h31.35a6 6 0 0 1 6 6V14.95a6 6 0 0 0 6 6h31.94" stroke="#3a414a" fill="none"/><path d="M-635.2-92.08v-20M-655.2-102.08h20" stroke="#3a414a" fill="#fff"/><path d="M-540.72 30.95l-20-10 20-10" stroke="#3a414a" fill="#fff" fill-opacity="0"/><path d="M-540.72 20.95h-20" stroke="#3a414a" fill="#fff"/><path d="M-880-8.58a5 5 0 0 1 5-5h214.3a5 5 0 0 1 5 5v132a5 5 0 0 1-5 5H-875a5 5 0 0 1-5-5z" fill="#fff"/><path d="M-880 26.42v-35a5 5 0 0 1 5-5h214.3a5 5 0 0 1 5 5v35" fill="#dfe3e8"/><path d="M-880-8.58a5 5 0 0 1 5-5h214.3a5 5 0 0 1 5 5v132a5 5 0 0 1-5 5H-875a5 5 0 0 1-5-5zM-880 26.42h224.3" stroke="#282c33" fill="none"/><use xlink:href="#q" transform="matrix(1,0,0,1,-870,-13.578271745047061) translate(0 24.044444444444444)"/><use xlink:href="#l" transform="matrix(1,0,0,1,-875,28.92172825495294) translate(0 18.544444444444444)"/><use xlink:href="#m" transform="matrix(1,0,0,1,-875,62.92172825495294) translate(0 18.544444444444444)"/><use xlink:href="#n" transform="matrix(1,0,0,1,-875,96.92172825495294) translate(0 18.544444444444444)"/><path d="M140-65.05a5 5 0 0 1 5-5h214.3a5 5 0 0 1 5 5v166a5 5 0 0 1-5 5H145a5 5 0 0 1-5-5z" fill="#fff"/><path d="M140-30.05v-35a5 5 0 0 1 5-5h214.3a5 5 0 0 1 5 5v35" fill="#dfe3e8"/><path d="M140-65.05a5 5 0 0 1 5-5h214.3a5 5 0 0 1 5 5v166a5 5 0 0 1-5 5H145a5 5 0 0 1-5-5zM140-30.05h224.3" stroke="#282c33" fill="none"/><use xlink:href="#r" transform="matrix(1,0,0,1,150.0000000000001,-70.05221449669796) translate(0 24.044444444444444)"/><use xlink:href="#l" transform="matrix(1,0,0,1,145.0000000000001,-27.552214496697957) translate(0 18.544444444444444)"/><use xlink:href="#s" transform="matrix(1,0,0,1,145.0000000000001,6.447785503302043) translate(0 18.544444444444444)"/><use xlink:href="#t" transform="matrix(1,0,0,1,145.0000000000001,40.44778550330204) translate(0 18.544444444444444)"/><use xlink:href="#u" transform="matrix(1,0,0,1,145.0000000000001,74.44778550330204) translate(0 18.544444444444444)"/><path d="M-767.85 148.92V214a6 6 0 0 0 6 6h1008a6 6 0 0 0 6-6v-88.14" stroke="#3a414a" fill="none"/><path d="M-777.85 148.92h20M-767.85 128.92v20" stroke="#3a414a" fill="#fff"/><path d="M262.15 106.67l-10 20-10-20" stroke="#3a414a" fill="#fff" fill-opacity="0"/><path d="M252.15 106.67v20" stroke="#3a414a" fill="#fff"/><path d="M-200-31.05a5 5 0 0 1 5-5H19.3a5 5 0 0 1 5 5v166a5 5 0 0 1-5 5H-195a5 5 0 0 1-5-5z" fill="#fff"/><path d="M-200 3.95v-35a5 5 0 0 1 5-5H19.3a5 5 0 0 1 5 5v35" fill="#dfe3e8"/><path d="M-200-31.05a5 5 0 0 1 5-5H19.3a5 5 0 0 1 5 5v166a5 5 0 0 1-5 5H-195a5 5 0 0 1-5-5zM-200 3.95H24.3" stroke="#282c33" fill="none"/><use xlink:href="#v" transform="matrix(1,0,0,1,-190,-36.05221449669796) translate(0 24.044444444444444)"/><use xlink:href="#l" transform="matrix(1,0,0,1,-195,6.447785503302043) translate(0 18.544444444444444)"/><use xlink:href="#w" transform="matrix(1,0,0,1,-195,40.44778550330204) translate(0 18.544444444444444)"/><use xlink:href="#x" transform="matrix(1,0,0,1,-195,74.44778550330204) translate(0 18.544444444444444)"/><use xlink:href="#y" transform="matrix(1,0,0,1,-195,108.44778550330204) translate(0 18.544444444444444)"/><path d="M-200-288.08a5 5 0 0 1 5-5H19.3a5 5 0 0 1 5 5v166a5 5 0 0 1-5 5H-195a5 5 0 0 1-5-5z" fill="#fff"/><path d="M-200-253.08v-35a5 5 0 0 1 5-5H19.3a5 5 0 0 1 5 5v35" fill="#dfe3e8"/><path d="M-200-288.08a5 5 0 0 1 5-5H19.3a5 5 0 0 1 5 5v166a5 5 0 0 1-5 5H-195a5 5 0 0 1-5-5zM-200-253.08H24.3" stroke="#282c33" fill="none"/><use xlink:href="#z" transform="matrix(1,0,0,1,-190,-293.07832174504694) translate(0 24.044444444444444)"/><use xlink:href="#l" transform="matrix(1,0,0,1,-195,-250.57832174504694) translate(0 18.544444444444444)"/><use xlink:href="#A" transform="matrix(1,0,0,1,-195,-216.57832174504694) translate(0 18.544444444444444)"/><use xlink:href="#B" transform="matrix(1,0,0,1,-195,-182.57832174504694) translate(0 18.544444444444444)"/><use xlink:href="#C" transform="matrix(1,0,0,1,-195,-148.57832174504694) translate(0 18.544444444444444)"/><path d="M-295.2 88.95h75.3" stroke="#3a414a" fill="none"/><path d="M-295.2 98.95v-20M-315.2 88.95h20" stroke="#3a414a" fill="#fff"/><path d="M-200.72 98.95l-20-10 20-10" stroke="#3a414a" fill="#fff" fill-opacity="0"/><path d="M-200.72 88.95h-20" stroke="#3a414a" fill="#fff"/><path d="M119.5 88.95H44.2" stroke="#3a414a" fill="none"/><path d="M119.5 78.95v20M139.5 88.95h-20" stroke="#3a414a" fill="#fff"/><path d="M25.02 78.95l20 10-20 10" stroke="#3a414a" fill="#fff" fill-opacity="0"/><path d="M25.02 88.95h20" stroke="#3a414a" fill="#fff"/><path d="M-295.2-288.08h31.35a6 6 0 0 1 6 6v108a6 6 0 0 0 6 6h31.94" stroke="#3a414a" fill="none"/><path d="M-295.2-278.08v-20M-315.2-288.08h20" stroke="#3a414a" fill="#fff"/><path d="M-200.72-158.08l-20-10 20-10" stroke="#3a414a" fill="#fff" fill-opacity="0"/><path d="M-200.72-168.08h-20" stroke="#3a414a" fill="#fff"/><path d="M140-334.03a5 5 0 0 1 5-5h214.3a5 5 0 0 1 5 5v200a5 5 0 0 1-5 5H145a5 5 0 0 1-5-5z" fill="#fff"/><path d="M140-299.03v-35a5 5 0 0 1 5-5h214.3a5 5 0 0 1 5 5v35" fill="#dfe3e8"/><path d="M140-334.03a5 5 0 0 1 5-5h214.3a5 5 0 0 1 5 5v200a5 5 0 0 1-5 5H145a5 5 0 0 1-5-5zM140-299.03h224.3" stroke="#282c33" fill="none"/><use xlink:href="#D" transform="matrix(1,0,0,1,150.0000000000001,-339.026107248349) translate(0 24.044444444444444)"/><use xlink:href="#l" transform="matrix(1,0,0,1,145.0000000000001,-296.526107248349) translate(0 18.544444444444444)"/><use xlink:href="#E" transform="matrix(1,0,0,1,145.0000000000001,-262.526107248349) translate(0 18.544444444444444)"/><use xlink:href="#F" transform="matrix(1,0,0,1,145.0000000000001,-228.52610724834898) translate(0 18.544444444444444)"/><use xlink:href="#G" transform="matrix(1,0,0,1,145.0000000000001,-194.52610724834898) translate(0 18.544444444444444)"/><use xlink:href="#H" transform="matrix(1,0,0,1,145.0000000000001,-160.52610724834898) translate(0 18.544444444444444)"/><path d="M44.8 20.95h31.35a6 6 0 0 0 6-6v-256.98a6 6 0 0 1 6-6h31.94" stroke="#3a414a" fill="none"/><path d="M44.8 30.95v-20M24.8 20.95h20" stroke="#3a414a" fill="#fff"/><path d="M139.28-238.03l-20-10 20-10" stroke="#3a414a" fill="#fff" fill-opacity="0"/><path d="M139.28-248.03h-20" stroke="#3a414a" fill="#fff"/><path d="M-767.85-393.08V-454a6 6 0 0 1 6-6H242.97a6 6 0 0 1 6 6v95.06" stroke="#3a414a" fill="none"/><path d="M-757.85-393.08h-20M-767.85-373.08v-20" stroke="#3a414a" fill="#fff"/><path d="M238.97-339.75l10-20 10 20" stroke="#3a414a" fill="#fff" fill-opacity="0"/><path d="M248.97-339.75v-20" stroke="#3a414a" fill="#fff"/><path d="M-87.85-96.58v40.62" stroke="#3a414a" fill="none"/><path d="M-97.85-96.58h20M-87.85-116.58v20" stroke="#3a414a" fill="#fff"/><path d="M-97.85-36.78l10-20 10 20" stroke="#3a414a" fill="#fff" fill-opacity="0"/><path d="M-87.85-36.78v-20" stroke="#3a414a" fill="#fff"/><defs><path fill="#333" d="M25 0v-261h50V0H25" id="I"/><path fill="#333" d="M110-194c64 0 96 36 96 99 0 64-35 99-97 99-61 0-95-36-95-99 0-62 34-99 96-99zm-1 164c35 0 45-28 45-65 0-40-10-65-43-65-34 0-45 26-45 65 0 36 10 65 43 65" id="J"/><path fill="#333" d="M190-63c-7 42-38 67-86 67-59 0-84-38-90-98-12-110 154-137 174-36l-49 2c-2-19-15-32-35-32-30 0-35 28-38 64-6 74 65 87 74 30" id="K"/><path fill="#333" d="M133-34C117-15 103 5 69 4 32 3 11-16 11-54c-1-60 55-63 116-61 1-26-3-47-28-47-18 1-26 9-28 27l-52-2c7-38 36-58 82-57s74 22 75 68l1 82c-1 14 12 18 25 15v27c-30 8-71 5-69-32zm-48 3c29 0 43-24 42-57-32 0-66-3-65 30 0 17 8 27 23 27" id="L"/><path fill="#333" d="M115-3C79 11 28 4 28-45v-112H4v-33h27l15-45h31v45h36v33H77v99c-1 23 16 31 38 25v30" id="M"/><path fill="#333" d="M25-224v-37h50v37H25zM25 0v-190h50V0H25" id="N"/><path fill="#333" d="M135-194c87-1 58 113 63 194h-50c-7-57 23-157-34-157-59 0-34 97-39 157H25l-1-190h47c2 12-1 28 3 38 12-26 28-41 61-42" id="O"/><g id="a"><use transform="matrix(0.056172839506172814,0,0,0.056172839506172814,0,0)" xlink:href="#I"/><use transform="matrix(0.056172839506172814,0,0,0.056172839506172814,5.617283950617281,0)" xlink:href="#J"/><use transform="matrix(0.056172839506172814,0,0,0.056172839506172814,17.91913580246913,0)" xlink:href="#K"/><use transform="matrix(0.056172839506172814,0,0,0.056172839506172814,29.15370370370369,0)" xlink:href="#L"/><use transform="matrix(0.056172839506172814,0,0,0.056172839506172814,40.388271604938254,0)" xlink:href="#M"/><use transform="matrix(0.056172839506172814,0,0,0.056172839506172814,47.07283950617282,0)" xlink:href="#N"/><use transform="matrix(0.056172839506172814,0,0,0.056172839506172814,52.690123456790104,0)" xlink:href="#J"/><use transform="matrix(0.056172839506172814,0,0,0.056172839506172814,64.99197530864195,0)" xlink:href="#O"/></g><path fill="#333" d="M24-231v-30h32v30H24zM24 0v-190h32V0H24" id="P"/><path fill="#333" d="M85-194c31 0 48 13 60 33l-1-100h32l1 261h-30c-2-10 0-23-3-31C134-8 116 4 85 4 32 4 16-35 15-94c0-66 23-100 70-100zm9 24c-40 0-46 34-46 75 0 40 6 74 45 74 42 0 51-32 51-76 0-42-9-74-50-73" id="Q"/><g id="b"><use transform="matrix(0.056172839506172814,0,0,0.056172839506172814,0,0)" xlink:href="#P"/><use transform="matrix(0.056172839506172814,0,0,0.056172839506172814,4.437654320987653,0)" xlink:href="#Q"/></g><path fill="#333" d="M135-143c-3-34-86-38-87 0 15 53 115 12 119 90S17 21 10-45l28-5c4 36 97 45 98 0-10-56-113-15-118-90-4-57 82-63 122-42 12 7 21 19 24 35" id="R"/><path fill="#333" d="M59-47c-2 24 18 29 38 22v24C64 9 27 4 27-40v-127H5v-23h24l9-43h21v43h35v23H59v120" id="S"/><path fill="#333" d="M141-36C126-15 110 5 73 4 37 3 15-17 15-53c-1-64 63-63 125-63 3-35-9-54-41-54-24 1-41 7-42 31l-33-3c5-37 33-52 76-52 45 0 72 20 72 64v82c-1 20 7 32 28 27v20c-31 9-61-2-59-35zM48-53c0 20 12 33 32 33 41-3 63-29 60-74-43 2-92-5-92 41" id="T"/><path fill="#333" d="M100-194c63 0 86 42 84 106H49c0 40 14 67 53 68 26 1 43-12 49-29l28 8c-11 28-37 45-77 45C44 4 14-33 15-96c1-61 26-98 85-98zm52 81c6-60-76-77-97-28-3 7-6 17-6 28h103" id="U"/><g id="c"><use transform="matrix(0.056172839506172814,0,0,0.056172839506172814,0,0)" xlink:href="#R"/><use transform="matrix(0.056172839506172814,0,0,0.056172839506172814,10.111111111111107,0)" xlink:href="#S"/><use transform="matrix(0.056172839506172814,0,0,0.056172839506172814,15.728395061728389,0)" xlink:href="#T"/><use transform="matrix(0.056172839506172814,0,0,0.056172839506172814,26.96296296296295,0)" xlink:href="#S"/><use transform="matrix(0.056172839506172814,0,0,0.056172839506172814,32.58024691358023,0)" xlink:href="#U"/></g><path fill="#333" d="M96-169c-40 0-48 33-48 73s9 75 48 75c24 0 41-14 43-38l32 2c-6 37-31 61-74 61-59 0-76-41-82-99-10-93 101-131 147-64 4 7 5 14 7 22l-32 3c-4-21-16-35-41-35" id="V"/><path fill="#333" d="M100-194c62-1 85 37 85 99 1 63-27 99-86 99S16-35 15-95c0-66 28-99 85-99zM99-20c44 1 53-31 53-75 0-43-8-75-51-75s-53 32-53 75 10 74 51 75" id="W"/><path fill="#333" d="M84 4C-5 8 30-112 23-190h32v120c0 31 7 50 39 49 72-2 45-101 50-169h31l1 190h-30c-1-10 1-25-2-33-11 22-28 36-60 37" id="X"/><path fill="#333" d="M117-194c89-4 53 116 60 194h-32v-121c0-31-8-49-39-48C34-167 62-67 57 0H25l-1-190h30c1 10-1 24 2 32 11-22 29-35 61-36" id="Y"/><path fill="#333" d="M114-163C36-179 61-72 57 0H25l-1-190h30c1 12-1 29 2 39 6-27 23-49 58-41v29" id="Z"/><path fill="#333" d="M179-190L93 31C79 59 56 82 12 73V49c39 6 53-20 64-50L1-190h34L92-34l54-156h33" id="aa"/><g id="d"><use transform="matrix(0.056172839506172814,0,0,0.056172839506172814,0,0)" xlink:href="#V"/><use transform="matrix(0.056172839506172814,0,0,0.056172839506172814,10.111111111111107,0)" xlink:href="#W"/><use transform="matrix(0.056172839506172814,0,0,0.056172839506172814,21.34567901234567,0)" xlink:href="#X"/><use transform="matrix(0.056172839506172814,0,0,0.056172839506172814,32.58024691358023,0)" xlink:href="#Y"/><use transform="matrix(0.056172839506172814,0,0,0.056172839506172814,43.814814814814795,0)" xlink:href="#S"/><use transform="matrix(0.056172839506172814,0,0,0.056172839506172814,49.43209876543207,0)" xlink:href="#Z"/><use transform="matrix(0.056172839506172814,0,0,0.056172839506172814,56.11666666666664,0)" xlink:href="#aa"/></g><path fill="#333" d="M85 4C-2 5 27-109 22-190h50c7 57-23 150 33 157 60-5 35-97 40-157h50l1 190h-47c-2-12 1-28-3-38-12 25-28 42-61 42" id="ab"/><path fill="#333" d="M137-138c1-29-70-34-71-4 15 46 118 7 119 86 1 83-164 76-172 9l43-7c4 19 20 25 44 25 33 8 57-30 24-41C81-84 22-81 20-136c-2-80 154-74 161-7" id="ac"/><path fill="#333" d="M185-48c-13 30-37 53-82 52C43 2 14-33 14-96s30-98 90-98c62 0 83 45 84 108H66c0 31 8 55 39 56 18 0 30-7 34-22zm-45-69c5-46-57-63-70-21-2 6-4 13-4 21h74" id="ad"/><path fill="#333" d="M135-150c-39-12-60 13-60 57V0H25l-1-190h47c2 13-1 29 3 40 6-28 27-53 61-41v41" id="ae"/><g id="e"><use transform="matrix(0.056172839506172814,0,0,0.056172839506172814,0,0)" xlink:href="#ab"/><use transform="matrix(0.056172839506172814,0,0,0.056172839506172814,12.301851851851847,0)" xlink:href="#ac"/><use transform="matrix(0.056172839506172814,0,0,0.056172839506172814,23.53641975308641,0)" xlink:href="#ad"/><use transform="matrix(0.056172839506172814,0,0,0.056172839506172814,34.770987654320976,0)" xlink:href="#ae"/></g><path fill="#333" d="M101-234c-31-9-42 10-38 44h38v23H63V0H32v-167H5v-23h27c-7-52 17-82 69-68v24" id="af"/><path fill="#333" d="M210-169c-67 3-38 105-44 169h-31v-121c0-29-5-50-35-48C34-165 62-65 56 0H25l-1-190h30c1 10-1 24 2 32 10-44 99-50 107 0 11-21 27-35 58-36 85-2 47 119 55 194h-31v-121c0-29-5-49-35-48" id="ag"/><g id="f"><use transform="matrix(0.056172839506172814,0,0,0.056172839506172814,0,0)" xlink:href="#af"/><use transform="matrix(0.056172839506172814,0,0,0.056172839506172814,5.617283950617281,0)" xlink:href="#P"/><use transform="matrix(0.056172839506172814,0,0,0.056172839506172814,10.054938271604934,0)" xlink:href="#Z"/><use transform="matrix(0.056172839506172814,0,0,0.056172839506172814,16.739506172839498,0)" xlink:href="#R"/><use transform="matrix(0.056172839506172814,0,0,0.056172839506172814,26.850617283950605,0)" xlink:href="#S"/><use transform="matrix(0.056172839506172814,0,0,0.056172839506172814,32.46790123456789,0)" xlink:href="#Y"/><use transform="matrix(0.056172839506172814,0,0,0.056172839506172814,43.70246913580245,0)" xlink:href="#T"/><use transform="matrix(0.056172839506172814,0,0,0.056172839506172814,54.937037037037015,0)" xlink:href="#ag"/><use transform="matrix(0.056172839506172814,0,0,0.056172839506172814,71.73271604938269,0)" xlink:href="#U"/></g><path fill="#333" d="M24 0v-261h32V0H24" id="ah"/><g id="g"><use transform="matrix(0.056172839506172814,0,0,0.056172839506172814,0,0)" xlink:href="#ah"/><use transform="matrix(0.056172839506172814,0,0,0.056172839506172814,4.437654320987653,0)" xlink:href="#T"/><use transform="matrix(0.056172839506172814,0,0,0.056172839506172814,15.672222222222215,0)" xlink:href="#R"/><use transform="matrix(0.056172839506172814,0,0,0.056172839506172814,25.783333333333324,0)" xlink:href="#S"/><use transform="matrix(0.056172839506172814,0,0,0.056172839506172814,31.400617283950602,0)" xlink:href="#Y"/><use transform="matrix(0.056172839506172814,0,0,0.056172839506172814,42.635185185185165,0)" xlink:href="#T"/><use transform="matrix(0.056172839506172814,0,0,0.056172839506172814,53.86975308641973,0)" xlink:href="#ag"/><use transform="matrix(0.056172839506172814,0,0,0.056172839506172814,70.6654320987654,0)" xlink:href="#U"/></g><path fill="#333" d="M177-190C167-65 218 103 67 71c-23-6-38-20-44-43l32-5c15 47 100 32 89-28v-30C133-14 115 1 83 1 29 1 15-40 15-95c0-56 16-97 71-98 29-1 48 16 59 35 1-10 0-23 2-32h30zM94-22c36 0 50-32 50-73 0-42-14-75-50-75-39 0-46 34-46 75s6 73 46 73" id="ai"/><g id="h"><use transform="matrix(0.056172839506172814,0,0,0.056172839506172814,0,0)" xlink:href="#ai"/><use transform="matrix(0.056172839506172814,0,0,0.056172839506172814,11.234567901234563,0)" xlink:href="#U"/><use transform="matrix(0.056172839506172814,0,0,0.056172839506172814,22.469135802469125,0)" xlink:href="#Y"/><use transform="matrix(0.056172839506172814,0,0,0.056172839506172814,33.70370370370369,0)" xlink:href="#Q"/><use transform="matrix(0.056172839506172814,0,0,0.056172839506172814,44.93827160493825,0)" xlink:href="#U"/><use transform="matrix(0.056172839506172814,0,0,0.056172839506172814,56.172839506172814,0)" xlink:href="#Z"/></g><g id="i"><use transform="matrix(0.056172839506172814,0,0,0.056172839506172814,0,0)" xlink:href="#U"/><use transform="matrix(0.056172839506172814,0,0,0.056172839506172814,11.234567901234563,0)" xlink:href="#ag"/><use transform="matrix(0.056172839506172814,0,0,0.056172839506172814,28.030246913580235,0)" xlink:href="#T"/><use transform="matrix(0.056172839506172814,0,0,0.056172839506172814,39.2648148148148,0)" xlink:href="#P"/><use transform="matrix(0.056172839506172814,0,0,0.056172839506172814,43.70246913580245,0)" xlink:href="#ah"/></g><g id="j"><use transform="matrix(0.056172839506172814,0,0,0.056172839506172814,0,0)" xlink:href="#ah"/><use transform="matrix(0.056172839506172814,0,0,0.056172839506172814,4.437654320987653,0)" xlink:href="#W"/><use transform="matrix(0.056172839506172814,0,0,0.056172839506172814,15.672222222222215,0)" xlink:href="#V"/><use transform="matrix(0.056172839506172814,0,0,0.056172839506172814,25.783333333333324,0)" xlink:href="#T"/><use transform="matrix(0.056172839506172814,0,0,0.056172839506172814,37.01790123456789,0)" xlink:href="#S"/><use transform="matrix(0.056172839506172814,0,0,0.056172839506172814,42.635185185185165,0)" xlink:href="#P"/><use transform="matrix(0.056172839506172814,0,0,0.056172839506172814,47.07283950617282,0)" xlink:href="#W"/><use transform="matrix(0.056172839506172814,0,0,0.056172839506172814,58.30740740740738,0)" xlink:href="#Y"/></g><path fill="#333" d="M88-194c31-1 46 15 58 34l-1-101h50l1 261h-48c-2-10 0-23-3-31C134-8 116 4 84 4 32 4 16-41 15-95c0-56 19-97 73-99zm17 164c33 0 40-30 41-66 1-37-9-64-41-64s-38 30-39 65c0 43 13 65 39 65" id="aj"/><g id="k"><use transform="matrix(0.056172839506172835,0,0,0.056172839506172835,0,0)" xlink:href="#L"/><use transform="matrix(0.056172839506172835,0,0,0.056172839506172835,11.234567901234566,0)" xlink:href="#aj"/><use transform="matrix(0.056172839506172835,0,0,0.056172839506172835,23.536419753086417,0)" xlink:href="#aj"/><use transform="matrix(0.056172839506172835,0,0,0.056172839506172835,35.83827160493827,0)" xlink:href="#J"/><use transform="matrix(0.056172839506172835,0,0,0.056172839506172835,48.14012345679012,0)" xlink:href="#O"/></g><g id="l"><use transform="matrix(0.056172839506172835,0,0,0.056172839506172835,0,0)" xlink:href="#P"/><use transform="matrix(0.056172839506172835,0,0,0.056172839506172835,4.4376543209876536,0)" xlink:href="#Q"/></g><g id="m"><use transform="matrix(0.056172839506172835,0,0,0.056172839506172835,0,0)" xlink:href="#Y"/><use transform="matrix(0.056172839506172835,0,0,0.056172839506172835,11.234567901234566,0)" xlink:href="#T"/><use transform="matrix(0.056172839506172835,0,0,0.056172839506172835,22.469135802469133,0)" xlink:href="#ag"/><use transform="matrix(0.056172839506172835,0,0,0.056172839506172835,39.26481481481481,0)" xlink:href="#U"/></g><path fill="#333" d="M115-194c55 1 70 41 70 98S169 2 115 4C84 4 66-9 55-30l1 105H24l-1-265h31l2 30c10-21 28-34 59-34zm-8 174c40 0 45-34 45-75s-6-73-45-74c-42 0-51 32-51 76 0 43 10 73 51 73" id="ak"/><g id="n"><use transform="matrix(0.056172839506172835,0,0,0.056172839506172835,0,0)" xlink:href="#ak"/><use transform="matrix(0.056172839506172835,0,0,0.056172839506172835,11.234567901234566,0)" xlink:href="#Z"/><use transform="matrix(0.056172839506172835,0,0,0.056172839506172835,17.919135802469135,0)" xlink:href="#P"/><use transform="matrix(0.056172839506172835,0,0,0.056172839506172835,22.35679012345679,0)" xlink:href="#V"/><use transform="matrix(0.056172839506172835,0,0,0.056172839506172835,32.467901234567904,0)" xlink:href="#U"/></g><path fill="#333" d="M195-6C206 82 75 100 31 46c-4-6-6-13-8-21l49-6c3 16 16 24 34 25 40 0 42-37 40-79-11 22-30 35-61 35-53 0-70-43-70-97 0-56 18-96 73-97 30 0 46 14 59 34l2-30h47zm-90-29c32 0 41-27 41-63 0-35-9-62-40-62-32 0-39 29-40 63 0 36 9 62 39 62" id="al"/><g id="o"><use transform="matrix(0.056172839506172814,0,0,0.056172839506172814,0,0)" xlink:href="#al"/><use transform="matrix(0.056172839506172814,0,0,0.056172839506172814,12.301851851851847,0)" xlink:href="#ab"/><use transform="matrix(0.056172839506172814,0,0,0.056172839506172814,24.603703703703694,0)" xlink:href="#ad"/><use transform="matrix(0.056172839506172814,0,0,0.056172839506172814,35.83827160493826,0)" xlink:href="#ac"/><use transform="matrix(0.056172839506172814,0,0,0.056172839506172814,47.07283950617282,0)" xlink:href="#M"/></g><path fill="#333" d="M115-194c53 0 69 39 70 98 0 66-23 100-70 100C84 3 66-7 56-30L54 0H23l1-261h32v101c10-23 28-34 59-34zm-8 174c40 0 45-34 45-75 0-40-5-75-45-74-42 0-51 32-51 76 0 43 10 73 51 73" id="am"/><g id="p"><use transform="matrix(0.056172839506172814,0,0,0.056172839506172814,0,0)" xlink:href="#Q"/><use transform="matrix(0.056172839506172814,0,0,0.056172839506172814,11.234567901234563,0)" xlink:href="#W"/><use transform="matrix(0.056172839506172814,0,0,0.056172839506172814,22.469135802469125,0)" xlink:href="#am"/></g><path fill="#333" d="M220-157c-53 9-28 100-34 157h-49v-107c1-27-5-49-29-50C55-147 81-57 75 0H25l-1-190h47c2 12-1 28 3 38 10-53 101-56 108 0 13-22 24-43 59-42 82 1 51 116 57 194h-49v-107c-1-25-5-48-29-50" id="an"/><path fill="#333" d="M123 10C108 53 80 86 19 72V37c35 8 53-11 59-39L3-190h52l48 148c12-52 28-100 44-148h51" id="ao"/><path fill="#333" d="M135-194c53 0 70 44 70 98 0 56-19 98-73 100-31 1-45-17-59-34 3 33 2 69 2 105H25l-1-265h48c2 10 0 23 3 31 11-24 29-35 60-35zM114-30c33 0 39-31 40-66 0-38-9-64-40-64-56 0-55 130 0 130" id="ap"/><g id="q"><use transform="matrix(0.056172839506172835,0,0,0.056172839506172835,0,0)" xlink:href="#ae"/><use transform="matrix(0.056172839506172835,0,0,0.056172839506172835,7.864197530864197,0)" xlink:href="#J"/><use transform="matrix(0.056172839506172835,0,0,0.056172839506172835,20.166049382716047,0)" xlink:href="#J"/><use transform="matrix(0.056172839506172835,0,0,0.056172839506172835,32.4679012345679,0)" xlink:href="#an"/><use transform="matrix(0.056172839506172835,0,0,0.056172839506172835,50.44320987654321,0)" xlink:href="#M"/><use transform="matrix(0.056172839506172835,0,0,0.056172839506172835,57.12777777777777,0)" xlink:href="#ao"/><use transform="matrix(0.056172839506172835,0,0,0.056172839506172835,68.36234567901234,0)" xlink:href="#ap"/><use transform="matrix(0.056172839506172835,0,0,0.056172839506172835,80.66419753086419,0)" xlink:href="#ad"/></g><g id="r"><use transform="matrix(0.056172839506172835,0,0,0.056172839506172835,0,0)" xlink:href="#ae"/><use transform="matrix(0.056172839506172835,0,0,0.056172839506172835,7.864197530864197,0)" xlink:href="#J"/><use transform="matrix(0.056172839506172835,0,0,0.056172839506172835,20.166049382716047,0)" xlink:href="#J"/><use transform="matrix(0.056172839506172835,0,0,0.056172839506172835,32.4679012345679,0)" xlink:href="#an"/></g><g id="s"><use transform="matrix(0.056172839506172835,0,0,0.056172839506172835,0,0)" xlink:href="#af"/><use transform="matrix(0.056172839506172835,0,0,0.056172839506172835,5.617283950617283,0)" xlink:href="#ah"/><use transform="matrix(0.056172839506172835,0,0,0.056172839506172835,10.054938271604936,0)" xlink:href="#W"/><use transform="matrix(0.056172839506172835,0,0,0.056172839506172835,21.289506172839502,0)" xlink:href="#W"/><use transform="matrix(0.056172839506172835,0,0,0.056172839506172835,32.524074074074065,0)" xlink:href="#Z"/></g><g id="t"><use transform="matrix(0.056172839506172835,0,0,0.056172839506172835,0,0)" xlink:href="#Y"/><use transform="matrix(0.056172839506172835,0,0,0.056172839506172835,11.234567901234566,0)" xlink:href="#X"/><use transform="matrix(0.056172839506172835,0,0,0.056172839506172835,22.469135802469133,0)" xlink:href="#ag"/><use transform="matrix(0.056172839506172835,0,0,0.056172839506172835,39.26481481481481,0)" xlink:href="#am"/><use transform="matrix(0.056172839506172835,0,0,0.056172839506172835,50.49938271604938,0)" xlink:href="#U"/><use transform="matrix(0.056172839506172835,0,0,0.056172839506172835,61.73395061728396,0)" xlink:href="#Z"/></g><g id="u"><use transform="matrix(0.056172839506172835,0,0,0.056172839506172835,0,0)" xlink:href="#Z"/><use transform="matrix(0.056172839506172835,0,0,0.056172839506172835,6.684567901234567,0)" xlink:href="#W"/><use transform="matrix(0.056172839506172835,0,0,0.056172839506172835,17.919135802469135,0)" xlink:href="#W"/><use transform="matrix(0.056172839506172835,0,0,0.056172839506172835,29.1537037037037,0)" xlink:href="#ag"/><use transform="matrix(0.056172839506172835,0,0,0.056172839506172835,45.94938271604938,0)" xlink:href="#S"/><use transform="matrix(0.056172839506172835,0,0,0.056172839506172835,51.56666666666666,0)" xlink:href="#aa"/><use transform="matrix(0.056172839506172835,0,0,0.056172839506172835,61.67777777777777,0)" xlink:href="#ak"/><use transform="matrix(0.056172839506172835,0,0,0.056172839506172835,72.91234567901235,0)" xlink:href="#U"/></g><path fill="#333" d="M135-194c52 0 70 43 70 98 0 56-19 99-73 100-30 1-46-15-58-35L72 0H24l1-261h50v104c11-23 29-37 60-37zM114-30c31 0 40-27 40-66 0-37-7-63-39-63s-41 28-41 65c0 36 8 64 40 64" id="aq"/><path fill="#333" d="M147 0L96-86 75-71V0H25v-261h50v150l67-79h53l-66 74L201 0h-54" id="ar"/><path fill="#333" d="M-4 44V30h207v14H-4" id="as"/><g id="v"><use transform="matrix(0.056172839506172835,0,0,0.056172839506172835,0,0)" xlink:href="#aq"/><use transform="matrix(0.056172839506172835,0,0,0.056172839506172835,12.30185185185185,0)" xlink:href="#J"/><use transform="matrix(0.056172839506172835,0,0,0.056172839506172835,24.6037037037037,0)" xlink:href="#J"/><use transform="matrix(0.056172839506172835,0,0,0.056172839506172835,36.90555555555555,0)" xlink:href="#ar"/><use transform="matrix(0.056172839506172835,0,0,0.056172839506172835,48.14012345679012,0)" xlink:href="#N"/><use transform="matrix(0.056172839506172835,0,0,0.056172839506172835,53.757407407407406,0)" xlink:href="#O"/><use transform="matrix(0.056172839506172835,0,0,0.056172839506172835,66.05925925925925,0)" xlink:href="#al"/><use transform="matrix(0.056172839506172835,0,0,0.056172839506172835,78.3611111111111,0)" xlink:href="#as"/><use transform="matrix(0.056172839506172835,0,0,0.056172839506172835,89.59567901234567,0)" xlink:href="#ae"/><use transform="matrix(0.056172839506172835,0,0,0.056172839506172835,97.45987654320987,0)" xlink:href="#J"/><use transform="matrix(0.056172839506172835,0,0,0.056172839506172835,109.76172839506172,0)" xlink:href="#J"/><use transform="matrix(0.056172839506172835,0,0,0.056172839506172835,122.06358024691357,0)" xlink:href="#an"/></g><path fill="#333" d="M143 0L79-87 56-68V0H24v-261h32v163l83-92h37l-77 82L181 0h-38" id="at"/><g id="w"><use transform="matrix(0.056172839506172835,0,0,0.056172839506172835,0,0)" xlink:href="#am"/><use transform="matrix(0.056172839506172835,0,0,0.056172839506172835,11.234567901234566,0)" xlink:href="#W"/><use transform="matrix(0.056172839506172835,0,0,0.056172839506172835,22.469135802469133,0)" xlink:href="#W"/><use transform="matrix(0.056172839506172835,0,0,0.056172839506172835,33.703703703703695,0)" xlink:href="#at"/><use transform="matrix(0.056172839506172835,0,0,0.056172839506172835,43.81481481481481,0)" xlink:href="#P"/><use transform="matrix(0.056172839506172835,0,0,0.056172839506172835,48.252469135802464,0)" xlink:href="#Y"/><use transform="matrix(0.056172839506172835,0,0,0.056172839506172835,59.487037037037034,0)" xlink:href="#ai"/></g><g id="x"><use transform="matrix(0.056172839506172835,0,0,0.056172839506172835,0,0)" xlink:href="#ai"/><use transform="matrix(0.056172839506172835,0,0,0.056172839506172835,11.234567901234566,0)" xlink:href="#X"/><use transform="matrix(0.056172839506172835,0,0,0.056172839506172835,22.469135802469133,0)" xlink:href="#U"/><use transform="matrix(0.056172839506172835,0,0,0.056172839506172835,33.703703703703695,0)" xlink:href="#R"/><use transform="matrix(0.056172839506172835,0,0,0.056172839506172835,43.81481481481481,0)" xlink:href="#S"/></g><g id="y"><use transform="matrix(0.056172839506172835,0,0,0.056172839506172835,0,0)" xlink:href="#Z"/><use transform="matrix(0.056172839506172835,0,0,0.056172839506172835,6.684567901234567,0)" xlink:href="#W"/><use transform="matrix(0.056172839506172835,0,0,0.056172839506172835,17.919135802469135,0)" xlink:href="#W"/><use transform="matrix(0.056172839506172835,0,0,0.056172839506172835,29.1537037037037,0)" xlink:href="#ag"/></g><g id="z"><use transform="matrix(0.056172839506172835,0,0,0.056172839506172835,0,0)" xlink:href="#aq"/><use transform="matrix(0.056172839506172835,0,0,0.056172839506172835,12.30185185185185,0)" xlink:href="#J"/><use transform="matrix(0.056172839506172835,0,0,0.056172839506172835,24.6037037037037,0)" xlink:href="#J"/><use transform="matrix(0.056172839506172835,0,0,0.056172839506172835,36.90555555555555,0)" xlink:href="#ar"/><use transform="matrix(0.056172839506172835,0,0,0.056172839506172835,48.14012345679012,0)" xlink:href="#N"/><use transform="matrix(0.056172839506172835,0,0,0.056172839506172835,53.757407407407406,0)" xlink:href="#O"/><use transform="matrix(0.056172839506172835,0,0,0.056172839506172835,66.05925925925925,0)" xlink:href="#al"/></g><g id="A"><use transform="matrix(0.056172839506172835,0,0,0.056172839506172835,0,0)" xlink:href="#X"/><use transform="matrix(0.056172839506172835,0,0,0.056172839506172835,11.234567901234566,0)" xlink:href="#R"/><use transform="matrix(0.056172839506172835,0,0,0.056172839506172835,21.345679012345677,0)" xlink:href="#U"/><use transform="matrix(0.056172839506172835,0,0,0.056172839506172835,32.58024691358024,0)" xlink:href="#Z"/></g><path fill="#333" d="M106-169C34-169 62-67 57 0H25v-261h32l-1 103c12-21 28-36 61-36 89 0 53 116 60 194h-32v-121c2-32-8-49-39-48" id="au"/><g id="B"><use transform="matrix(0.056172839506172835,0,0,0.056172839506172835,0,0)" xlink:href="#V"/><use transform="matrix(0.056172839506172835,0,0,0.056172839506172835,10.11111111111111,0)" xlink:href="#au"/><use transform="matrix(0.056172839506172835,0,0,0.056172839506172835,21.345679012345677,0)" xlink:href="#U"/><use transform="matrix(0.056172839506172835,0,0,0.056172839506172835,32.58024691358024,0)" xlink:href="#V"/><use transform="matrix(0.056172839506172835,0,0,0.056172839506172835,42.691358024691354,0)" xlink:href="#at"/><use transform="matrix(0.056172839506172835,0,0,0.056172839506172835,52.80246913580247,0)" xlink:href="#P"/><use transform="matrix(0.056172839506172835,0,0,0.056172839506172835,57.24012345679012,0)" xlink:href="#Y"/></g><g id="C"><use transform="matrix(0.056172839506172835,0,0,0.056172839506172835,0,0)" xlink:href="#V"/><use transform="matrix(0.056172839506172835,0,0,0.056172839506172835,10.11111111111111,0)" xlink:href="#au"/><use transform="matrix(0.056172839506172835,0,0,0.056172839506172835,21.345679012345677,0)" xlink:href="#U"/><use transform="matrix(0.056172839506172835,0,0,0.056172839506172835,32.58024691358024,0)" xlink:href="#V"/><use transform="matrix(0.056172839506172835,0,0,0.056172839506172835,42.691358024691354,0)" xlink:href="#at"/><use transform="matrix(0.056172839506172835,0,0,0.056172839506172835,52.80246913580247,0)" xlink:href="#W"/><use transform="matrix(0.056172839506172835,0,0,0.056172839506172835,64.03703703703704,0)" xlink:href="#X"/><use transform="matrix(0.056172839506172835,0,0,0.056172839506172835,75.27160493827161,0)" xlink:href="#S"/></g><g id="D"><use transform="matrix(0.056172839506172835,0,0,0.056172839506172835,0,0)" xlink:href="#aq"/><use transform="matrix(0.056172839506172835,0,0,0.056172839506172835,12.30185185185185,0)" xlink:href="#J"/><use transform="matrix(0.056172839506172835,0,0,0.056172839506172835,24.6037037037037,0)" xlink:href="#J"/><use transform="matrix(0.056172839506172835,0,0,0.056172839506172835,36.90555555555555,0)" xlink:href="#ar"/><use transform="matrix(0.056172839506172835,0,0,0.056172839506172835,48.14012345679012,0)" xlink:href="#N"/><use transform="matrix(0.056172839506172835,0,0,0.056172839506172835,53.757407407407406,0)" xlink:href="#O"/><use transform="matrix(0.056172839506172835,0,0,0.056172839506172835,66.05925925925925,0)" xlink:href="#al"/><use transform="matrix(0.056172839506172835,0,0,0.056172839506172835,78.3611111111111,0)" xlink:href="#as"/><use transform="matrix(0.056172839506172835,0,0,0.056172839506172835,89.59567901234567,0)" xlink:href="#L"/><use transform="matrix(0.056172839506172835,0,0,0.056172839506172835,100.83024691358024,0)" xlink:href="#aj"/><use transform="matrix(0.056172839506172835,0,0,0.056172839506172835,113.13209876543209,0)" xlink:href="#aj"/><use transform="matrix(0.056172839506172835,0,0,0.056172839506172835,125.43395061728394,0)" xlink:href="#J"/><use transform="matrix(0.056172839506172835,0,0,0.056172839506172835,137.7358024691358,0)" xlink:href="#O"/></g><path fill="#333" d="M-5 72V49h209v23H-5" id="av"/><g id="E"><use transform="matrix(0.056172839506172835,0,0,0.056172839506172835,0,0)" xlink:href="#am"/><use transform="matrix(0.056172839506172835,0,0,0.056172839506172835,11.234567901234566,0)" xlink:href="#W"/><use transform="matrix(0.056172839506172835,0,0,0.056172839506172835,22.469135802469133,0)" xlink:href="#W"/><use transform="matrix(0.056172839506172835,0,0,0.056172839506172835,33.703703703703695,0)" xlink:href="#at"/><use transform="matrix(0.056172839506172835,0,0,0.056172839506172835,43.81481481481481,0)" xlink:href="#P"/><use transform="matrix(0.056172839506172835,0,0,0.056172839506172835,48.252469135802464,0)" xlink:href="#Y"/><use transform="matrix(0.056172839506172835,0,0,0.056172839506172835,59.487037037037034,0)" xlink:href="#ai"/><use transform="matrix(0.056172839506172835,0,0,0.056172839506172835,70.7216049382716,0)" xlink:href="#av"/><use transform="matrix(0.056172839506172835,0,0,0.056172839506172835,81.95617283950617,0)" xlink:href="#Z"/><use transform="matrix(0.056172839506172835,0,0,0.056172839506172835,88.64074074074074,0)" xlink:href="#W"/><use transform="matrix(0.056172839506172835,0,0,0.056172839506172835,99.87530864197531,0)" xlink:href="#W"/><use transform="matrix(0.056172839506172835,0,0,0.056172839506172835,111.10987654320988,0)" xlink:href="#ag"/></g><g id="F"><use transform="matrix(0.056172839506172835,0,0,0.056172839506172835,0,0)" xlink:href="#T"/><use transform="matrix(0.056172839506172835,0,0,0.056172839506172835,11.234567901234566,0)" xlink:href="#Q"/><use transform="matrix(0.056172839506172835,0,0,0.056172839506172835,22.469135802469133,0)" xlink:href="#Q"/><use transform="matrix(0.056172839506172835,0,0,0.056172839506172835,33.703703703703695,0)" xlink:href="#W"/><use transform="matrix(0.056172839506172835,0,0,0.056172839506172835,44.938271604938265,0)" xlink:href="#Y"/></g><path fill="#333" d="M145-31C134-9 116 4 85 4 32 4 16-35 15-94c0-59 17-99 70-100 32-1 48 14 60 33 0-11-1-24 2-32h30l-1 268h-32zM93-21c41 0 51-33 51-76s-8-73-50-73c-40 0-46 35-46 75s5 74 45 74" id="aw"/><g id="G"><use transform="matrix(0.056172839506172835,0,0,0.056172839506172835,0,0)" xlink:href="#aw"/><use transform="matrix(0.056172839506172835,0,0,0.056172839506172835,11.234567901234566,0)" xlink:href="#X"/><use transform="matrix(0.056172839506172835,0,0,0.056172839506172835,22.469135802469133,0)" xlink:href="#T"/><use transform="matrix(0.056172839506172835,0,0,0.056172839506172835,33.703703703703695,0)" xlink:href="#Y"/><use transform="matrix(0.056172839506172835,0,0,0.056172839506172835,44.938271604938265,0)" xlink:href="#S"/><use transform="matrix(0.056172839506172835,0,0,0.056172839506172835,50.55555555555555,0)" xlink:href="#P"/><use transform="matrix(0.056172839506172835,0,0,0.056172839506172835,54.993209876543204,0)" xlink:href="#S"/><use transform="matrix(0.056172839506172835,0,0,0.056172839506172835,60.61049382716049,0)" xlink:href="#aa"/></g><g id="H"><use transform="matrix(0.056172839506172835,0,0,0.056172839506172835,0,0)" xlink:href="#Q"/><use transform="matrix(0.056172839506172835,0,0,0.056172839506172835,11.234567901234566,0)" xlink:href="#T"/><use transform="matrix(0.056172839506172835,0,0,0.056172839506172835,22.469135802469133,0)" xlink:href="#S"/><use transform="matrix(0.056172839506172835,0,0,0.056172839506172835,28.086419753086417,0)" xlink:href="#U"/><use transform="matrix(0.056172839506172835,0,0,0.056172839506172835,39.32098765432099,0)" xlink:href="#S"/><use transform="matrix(0.056172839506172835,0,0,0.056172839506172835,44.93827160493827,0)" xlink:href="#P"/><use transform="matrix(0.056172839506172835,0,0,0.056172839506172835,49.37592592592593,0)" xlink:href="#ag"/><use transform="matrix(0.056172839506172835,0,0,0.056172839506172835,66.1716049382716,0)" xlink:href="#U"/></g></defs></g></svg>